<?xml version="1.0" encoding="UTF-8"?>
<svg version="1.1" xmlns="http://www.w3.org/2000/svg" width="1088" height="377">
<path d="M0 0 C359.04 0 718.08 0 1088 0 C1088 124.41 1088 248.82 1088 377 C728.96 377 369.92 377 0 377 C0 252.59 0 128.18 0 0 Z " fill="#FCFCFC" transform="translate(0,0)"/>
<path d="M0 0 C2.85652387 1.4702581 5.81571802 2.67087305 8.77685547 3.91455078 C9.43685547 4.24455078 10.09685547 4.57455078 10.77685547 4.91455078 C10.77685547 5.57455078 10.77685547 6.23455078 10.77685547 6.91455078 C11.47166016 7.15173828 12.16646484 7.38892578 12.88232422 7.63330078 C16.29883732 9.14560348 19.13442218 11.16693445 22.08935547 13.41455078 C22.63914062 13.81802734 23.18892578 14.22150391 23.75537109 14.63720703 C25.13692998 15.6772377 26.46241845 16.79088532 27.77685547 17.91455078 C27.77685547 18.57455078 27.77685547 19.23455078 27.77685547 19.91455078 C26.68888672 20.33865234 25.60091797 20.76275391 24.47998047 21.19970703 C16.40547848 24.40277717 8.84555871 27.7958295 1.42138672 32.35595703 C-1.02135211 33.79562142 -3.42366854 34.94647175 -6.03564453 36.03955078 C-9.50194204 37.50296082 -12.26658991 39.28383541 -15.25830078 41.54345703 C-25.82143513 48.91455078 -25.82143513 48.91455078 -30.22314453 48.91455078 C-30.55314453 49.90455078 -30.88314453 50.89455078 -31.22314453 51.91455078 C-35.55647786 54.91455078 -35.55647786 54.91455078 -38.22314453 54.91455078 C-38.22314453 55.57455078 -38.22314453 56.23455078 -38.22314453 56.91455078 C-42.60775992 59.91455078 -42.60775992 59.91455078 -45.22314453 59.91455078 C-45.22314453 60.57455078 -45.22314453 61.23455078 -45.22314453 61.91455078 C-47.45361328 63.78955078 -47.45361328 63.78955078 -50.41064453 65.91455078 C-51.37357422 66.61580078 -52.33650391 67.31705078 -53.32861328 68.03955078 C-56.22314453 69.91455078 -56.22314453 69.91455078 -59.02392578 70.97705078 C-59.74966797 71.28642578 -60.47541016 71.59580078 -61.22314453 71.91455078 C-61.71814453 73.39955078 -61.71814453 73.39955078 -62.22314453 74.91455078 C-66.13253403 79.01575612 -69.93535069 81.89274725 -75.22314453 83.91455078 C-75.47837891 84.48173828 -75.73361328 85.04892578 -75.99658203 85.63330078 C-77.7092258 88.81860002 -80.28456622 90.88345442 -82.97314453 93.22705078 C-86.8817556 96.71387763 -90.57942167 100.16569885 -93.84423828 104.28173828 C-96.53317367 107.46580342 -99.59392446 110.3040823 -102.58251953 113.20361328 C-108.62103247 119.1039903 -113.96427168 125.32035284 -119.22314453 131.91455078 C-120.30185906 133.22870707 -121.38272658 134.54109799 -122.46533203 135.85205078 C-130.04719648 145.00224583 -130.04719648 145.00224583 -136.81298828 154.75830078 C-139.23458339 158.46112765 -141.9845392 161.93074274 -144.68408203 165.43408203 C-146.57463094 167.99450763 -146.57463094 167.99450763 -146.22314453 171.91455078 C-144.24314453 172.24455078 -142.26314453 172.57455078 -140.22314453 172.91455078 C-139.94567383 172.3314917 -139.66820312 171.74843262 -139.38232422 171.14770508 C-137.44877661 167.42273457 -134.92922178 164.12200431 -132.47314453 160.72705078 C-131.90112305 159.93621094 -131.32910156 159.14537109 -130.73974609 158.33056641 C-122.5375141 147.11208724 -113.66888642 136.43123924 -104.26220703 126.20361328 C-102.16224186 123.84618111 -100.23095648 121.40064443 -98.28564453 118.91455078 C-89.00919179 107.46978834 -78.18636646 96.84602429 -66.58251953 87.77392578 C-64.26498474 85.94752419 -62.08987312 84.02789803 -59.91064453 82.03955078 C-48.15025236 71.49502803 -35.13116723 61.16958121 -21.02783203 53.98486328 C-19.18747245 53.00185365 -19.18747245 53.00185365 -17.87963867 51.51635742 C-14.67737489 48.41981318 -10.62109801 46.44697345 -6.78564453 44.22705078 C-5.92648438 43.7159375 -5.06732422 43.20482422 -4.18212891 42.67822266 C-3.35132813 42.19546875 -2.52052734 41.71271484 -1.66455078 41.21533203 C-0.90859619 40.77358643 -0.1526416 40.33184082 0.6262207 39.87670898 C2.77685547 38.91455078 2.77685547 38.91455078 6.77685547 38.91455078 C6.77685547 38.25455078 6.77685547 37.59455078 6.77685547 36.91455078 C7.50130859 36.58841797 8.22576172 36.26228516 8.97216797 35.92626953 C9.93896484 35.48927734 10.90576172 35.05228516 11.90185547 34.60205078 C12.90603516 34.14830078 13.91021484 33.69455078 14.94482422 33.22705078 C17.0634239 32.24518941 19.14883143 31.19114527 21.21435547 30.10205078 C23.77685547 28.91455078 23.77685547 28.91455078 27.77685547 28.91455078 C27.77685547 28.25455078 27.77685547 27.59455078 27.77685547 26.91455078 C32.17138672 25.44970703 36.56591797 23.98486328 40.96044922 22.52001953 C41.75797607 22.25406982 42.55550293 21.98812012 43.37719727 21.71411133 C44.95392188 21.18875034 46.53090022 20.66415012 48.1081543 20.14038086 C51.67737314 18.95421136 55.24218052 17.7583203 58.79638672 16.52783203 C59.42609375 16.31191406 60.05580078 16.09599609 60.70458984 15.87353516 C61.98217986 15.43531516 63.25818625 14.99245586 64.53271484 14.54541016 C67.84993896 13.41679926 70.21936087 12.91455078 73.77685547 12.91455078 C73.44685547 14.56455078 73.11685547 16.21455078 72.77685547 17.91455078 C71.78685547 18.24455078 70.79685547 18.57455078 69.77685547 18.91455078 C68.65403614 20.76412382 68.65403614 20.76412382 67.77685547 22.91455078 C67.13055284 24.13452111 66.47939101 25.35192789 65.82373047 26.56689453 C57.96086486 40.86201557 57.96086486 40.86201557 51.77685547 55.91455078 C51.11685547 55.91455078 50.45685547 55.91455078 49.77685547 55.91455078 C49.62990234 56.93162109 49.62990234 56.93162109 49.47998047 57.96923828 C49.25568359 59.36529297 49.25568359 59.36529297 49.02685547 60.78955078 C48.88763672 61.69447266 48.74841797 62.59939453 48.60498047 63.53173828 C47.68467949 67.29108096 46.29628532 70.66689647 44.82421875 74.23828125 C43.12154981 78.58901714 41.85410471 83.04558464 40.58935547 87.53955078 C40.32960938 88.42900391 40.06986328 89.31845703 39.80224609 90.23486328 C37.06281785 99.86179458 36.55270941 109.14408944 36.17138672 119.10791016 C36.1153125 120.40245117 36.1153125 120.40245117 36.05810547 121.72314453 C36.0278125 122.50488037 35.99751953 123.28661621 35.96630859 124.09204102 C35.77685547 125.91455078 35.77685547 125.91455078 34.77685547 126.91455078 C34.6773647 128.67140752 34.64605287 130.43222411 34.64404297 132.19189453 C34.64210938 133.79774414 34.64210938 133.79774414 34.64013672 135.43603516 C34.64400391 136.56332031 34.64787109 137.69060547 34.65185547 138.85205078 C34.64798828 139.97546875 34.64412109 141.09888672 34.64013672 142.25634766 C34.64142578 143.32820312 34.64271484 144.40005859 34.64404297 145.50439453 C34.64573486 146.98734009 34.64573486 146.98734009 34.64746094 148.50024414 C34.61659043 150.92627458 34.61659043 150.92627458 35.77685547 152.91455078 C35.9269052 154.28801428 36.02523553 155.66740338 36.09326172 157.04736328 C36.15610352 158.25585938 36.15610352 158.25585938 36.22021484 159.48876953 C36.25953125 160.33052734 36.29884766 161.17228516 36.33935547 162.03955078 C36.38253906 162.88904297 36.42572266 163.73853516 36.47021484 164.61376953 C36.57639783 166.71383301 36.67714043 168.81417026 36.77685547 170.91455078 C39.43118076 170.1222066 39.43118076 170.1222066 41.77685547 167.91455078 C42.50200101 164.66051446 42.30797958 161.43900014 42.19482422 158.12158203 C42.17709709 156.65334236 42.17709709 156.65334236 42.15901184 155.15544128 C42.11774899 152.01174211 42.04309215 148.87001677 41.96435547 145.72705078 C41.6888776 132.25185553 41.5294661 119.23761819 43.77685547 105.91455078 C43.9437085 104.88402588 44.11056152 103.85350098 44.2824707 102.79174805 C44.77268278 99.9450863 45.31872981 97.11856161 45.90185547 94.28955078 C46.20965942 92.79198242 46.20965942 92.79198242 46.52368164 91.26416016 C48.88817054 80.44243605 52.67226404 70.18291368 56.77685547 59.91455078 C59.77685547 60.91455078 59.77685547 60.91455078 60.98779297 62.67236328 C69.93345547 80.8638783 74.56421556 100.15537476 74.27685547 120.35205078 C74.27164886 121.11424927 74.26644226 121.87644775 74.26107788 122.66174316 C74.16901255 134.17548516 73.32568783 144.91086602 69.77685547 155.91455078 C69.3747632 157.25147484 68.97373351 158.5887189 68.57373047 159.92626953 C65.78043595 168.97222927 62.02685062 177.47277959 57.77685547 185.91455078 C57.11685547 185.91455078 56.45685547 185.91455078 55.77685547 185.91455078 C55.65310547 186.47142578 55.52935547 187.02830078 55.40185547 187.60205078 C54.05171428 192.59757319 52.43948054 195.2852223 48.77685547 198.91455078 C47.56609659 200.4169333 46.37831408 201.93812563 45.21435547 203.47705078 C43.5938193 205.61731347 42.05960201 207.64249915 40.12451172 209.50439453 C38.51552093 210.98716492 38.51552093 210.98716492 37.77685547 213.91455078 C34.33241102 216.91455078 34.33241102 216.91455078 31.77685547 216.91455078 C31.77685547 217.57455078 31.77685547 218.23455078 31.77685547 218.91455078 C31.11685547 218.91455078 30.45685547 218.91455078 29.77685547 218.91455078 C29.77685547 219.57455078 29.77685547 220.23455078 29.77685547 220.91455078 C27.30185547 221.90455078 27.30185547 221.90455078 24.77685547 222.91455078 C24.77685547 223.57455078 24.77685547 224.23455078 24.77685547 224.91455078 C23.78685547 224.91455078 22.79685547 224.91455078 21.77685547 224.91455078 C21.77685547 225.57455078 21.77685547 226.23455078 21.77685547 226.91455078 C20.45685547 227.24455078 19.13685547 227.57455078 17.77685547 227.91455078 C17.77685547 228.57455078 17.77685547 229.23455078 17.77685547 229.91455078 C14.01466519 232.6254304 9.85710197 234.72340083 5.77685547 236.91455078 C5.10154785 237.28596191 4.42624023 237.65737305 3.73046875 238.04003906 C-26.96674079 254.69662409 -63.25635922 255.47491852 -96.22314453 245.91455078 C-99.24647849 244.96675958 -102.23298796 243.96372852 -105.22314453 242.91455078 C-105.22314453 242.25455078 -105.22314453 241.59455078 -105.22314453 240.91455078 C-105.86251953 240.83205078 -106.50189453 240.74955078 -107.16064453 240.66455078 C-115.53995406 238.61247498 -123.38649042 234.10274063 -130.22314453 228.91455078 C-130.22314453 228.25455078 -130.22314453 227.59455078 -130.22314453 226.91455078 C-131.09688721 226.76421387 -131.09688721 226.76421387 -131.98828125 226.61083984 C-134.64428895 225.78333996 -135.94687444 224.66126198 -137.98095703 222.77392578 C-138.68454346 222.12149902 -139.38812988 221.46907227 -140.11303711 220.796875 C-140.85062256 220.09320801 -141.58820801 219.38954102 -142.34814453 218.66455078 C-143.10571045 217.9467041 -143.86327637 217.22885742 -144.64379883 216.48925781 C-150.91680499 210.4326084 -156.26833479 204.08778619 -161.22314453 196.91455078 C-161.96951172 195.84462891 -162.71587891 194.77470703 -163.48486328 193.67236328 C-165.22314453 190.91455078 -165.22314453 190.91455078 -165.22314453 188.91455078 C-165.88314453 188.91455078 -166.54314453 188.91455078 -167.22314453 188.91455078 C-167.49054443 188.28363525 -167.75794434 187.65271973 -168.03344727 187.00268555 C-169.24001453 184.15973928 -170.45027805 181.3183815 -171.66064453 178.47705078 C-172.08152344 177.48382813 -172.50240234 176.49060547 -172.93603516 175.46728516 C-173.33886719 174.52304688 -173.74169922 173.57880859 -174.15673828 172.60595703 C-174.52855225 171.73140869 -174.90036621 170.85686035 -175.28344727 169.95581055 C-176.05687645 167.96527763 -176.05687645 167.96527763 -177.22314453 166.91455078 C-177.26378285 165.24837963 -177.26586553 163.58066983 -177.22314453 161.91455078 C-177.88314453 161.91455078 -178.54314453 161.91455078 -179.22314453 161.91455078 C-179.87316131 158.91540359 -180.5182549 155.91533277 -181.16064453 152.91455078 C-181.43424805 151.65578125 -181.43424805 151.65578125 -181.71337891 150.37158203 C-181.890625 149.54013672 -182.06787109 148.70869141 -182.25048828 147.85205078 C-182.41282959 147.09794922 -182.5751709 146.34384766 -182.74243164 145.56689453 C-184.24603356 137.2707385 -184.47345736 129.07400357 -184.51831055 120.66357422 C-184.5297569 119.17845069 -184.55009058 117.69336587 -184.57983398 116.20849609 C-184.77562285 106.38623924 -183.84698249 97.76380314 -181.16650391 88.29370117 C-180.3754169 85.45999641 -179.81171556 82.75973596 -179.41064453 79.85205078 C-178.05914606 72.74771367 -174.46022321 66.31841327 -171.22314453 59.91455078 C-170.73587891 58.92970703 -170.24861328 57.94486328 -169.74658203 56.93017578 C-164.34701044 46.49301506 -157.05035859 37.5437807 -149.07080078 28.97314453 C-147.07748822 26.85093585 -147.07748822 26.85093585 -145.22314453 23.91455078 C-144.56314453 23.91455078 -143.90314453 23.91455078 -143.22314453 23.91455078 C-143.22314453 23.25455078 -143.22314453 22.59455078 -143.22314453 21.91455078 C-142.56314453 21.91455078 -141.90314453 21.91455078 -141.22314453 21.91455078 C-141.22314453 21.25455078 -141.22314453 20.59455078 -141.22314453 19.91455078 C-139.15738143 18.09607611 -137.08918021 16.40131399 -134.91064453 14.72705078 C-134.27199463 14.23309814 -133.63334473 13.73914551 -132.9753418 13.23022461 C-119.99729833 3.30507587 -106.48538238 -3.38446904 -90.85205078 -8.00732422 C-88.59336567 -8.67836522 -86.34533806 -9.38798881 -84.11767578 -10.15576172 C-57.52111343 -18.69824733 -24.27649565 -12.77269591 0 0 Z " fill="#82B2D0" transform="translate(253.22314453125,73.08544921875)"/>
<path d="M0 0 C-0.33 1.65 -0.66 3.3 -1 5 C-1.99 5.33 -2.98 5.66 -4 6 C-5.12281933 7.84957304 -5.12281933 7.84957304 -6 10 C-6.64630263 11.21997033 -7.29746446 12.43737711 -7.953125 13.65234375 C-15.81599061 27.94746479 -15.81599061 27.94746479 -22 43 C-22.66 43 -23.32 43 -24 43 C-24.14695312 44.01707031 -24.14695312 44.01707031 -24.296875 45.0546875 C-24.44640625 45.98539063 -24.5959375 46.91609375 -24.75 47.875 C-24.88921875 48.77992188 -25.0284375 49.68484375 -25.171875 50.6171875 C-26.09505252 54.38828056 -27.48567406 57.78017485 -28.96142578 61.36328125 C-30.5988795 65.52042749 -31.84734405 69.76593956 -33.0625 74.0625 C-33.31999023 74.96718018 -33.57748047 75.87186035 -33.84277344 76.80395508 C-35.96411716 84.46324271 -37.46174607 92.11606604 -38.65136719 99.97094727 C-38.89751904 101.40355792 -39.18918118 102.82870366 -39.51269531 104.24584961 C-41.10795807 111.2623139 -41.30661936 118.00796292 -41.25 125.1875 C-41.24613281 126.37553223 -41.24226562 127.56356445 -41.23828125 128.78759766 C-41.16362409 136.38085252 -40.7128932 143.68675242 -39.4375 151.1796875 C-39.02276027 153.85327754 -38.84519354 156.30056236 -39 159 C-40.94453189 160.94453189 -44.35979323 160.2635725 -46.9375 160.3125 C-54.70598524 160.3125 -61.26959073 159.46346255 -67.12890625 154.0234375 C-69.41221573 151.48642697 -71.4700592 149.05988161 -73 146 C-73.99 145.67 -74.98 145.34 -76 145 C-76.3403125 146.11375 -76.3403125 146.11375 -76.6875 147.25 C-78.2623402 150.54966517 -80.07503336 151.85978051 -83 154 C-83.45375 154.515625 -83.9075 155.03125 -84.375 155.5625 C-89.11344059 159.75419744 -94.82649515 160.53260722 -100.9375 160.4375 C-101.99626343 160.42178955 -101.99626343 160.42178955 -103.07641602 160.40576172 C-110.44610298 160.1483724 -114.26441347 158.71805072 -119.4375 153.578125 C-125.47491497 147.05017007 -125.47491497 147.05017007 -127 144 C-127.99 143.67 -128.98 143.34 -130 143 C-130 143.99 -130 144.98 -130 146 C-133.04153398 149.38913786 -136.39656529 152.22812715 -140 155 C-140.99 155.804375 -140.99 155.804375 -142 156.625 C-148.40296554 161.02703881 -155.50861056 160.91185853 -163 160 C-168.91634584 157.93162938 -175.19476863 155.16026499 -179 150 C-178.97339075 145.09059256 -177.04271747 142.04907382 -174.25 138.125 C-173.85949463 137.57545654 -173.46898926 137.02591309 -173.06665039 136.4597168 C-168.15563532 129.66006835 -162.7829659 123.22002712 -157.43945312 116.75976562 C-155.6422154 114.56259983 -153.9173929 112.31289165 -152.1875 110.0625 C-145.97225404 102.27044746 -138.91151461 95.16955798 -132 88 C-131.38350586 87.3601416 -130.76701172 86.7202832 -130.13183594 86.06103516 C-128.47075125 84.3452551 -126.80085629 82.63884262 -125.125 80.9375 C-124.63161133 80.43105957 -124.13822266 79.92461914 -123.62988281 79.40283203 C-122.45861276 78.22864422 -121.23401934 77.10805543 -120 76 C-119.34 76 -118.68 76 -118 76 C-118 75.34 -118 74.68 -118 74 C-116.43059199 72.56187327 -114.79125965 71.1996995 -113.125 69.875 C-112.11695313 69.06933594 -111.10890625 68.26367188 -110.0703125 67.43359375 C-109.05710937 66.63050781 -108.04390625 65.82742187 -107 65 C-106.15179688 64.31035156 -105.30359375 63.62070313 -104.4296875 62.91015625 C-83.7017017 46.08116456 -60.02593506 30.03885705 -34.421875 21.8046875 C-32.07708408 21.22644383 -32.07708408 21.22644383 -31 20 C-37.59837848 21.26435995 -43.29279845 23.17435751 -49.375 26 C-50.65733521 26.5873291 -50.65733521 26.5873291 -51.96557617 27.18652344 C-58.15800905 30.05880416 -64.2600715 33.09408232 -70.3125 36.25 C-71.08190918 36.64960937 -71.85131836 37.04921875 -72.64404297 37.4609375 C-77.39091615 39.98424787 -81.66648728 42.82066576 -86 46 C-87.70836956 46.98073068 -89.41709215 47.96101934 -91.13671875 48.921875 C-107.54793559 58.41767342 -122.10028011 71.24960485 -135.85546875 84.19921875 C-138 86 -138 86 -140 86 C-140.25652344 86.59554687 -140.51304687 87.19109375 -140.77734375 87.8046875 C-142.11829081 90.21239436 -143.42461783 91.40605636 -145.5625 93.125 C-149.63955841 96.57764406 -153.14118301 100.34563834 -156.6640625 104.35546875 C-158.1956818 106.08942572 -159.75246807 107.80154208 -161.3359375 109.48828125 C-168.86372461 117.51548466 -175.41696309 126.19494869 -182 135 C-182.86051885 136.14725412 -183.7211828 137.29439943 -184.58203125 138.44140625 C-185.71705078 139.95541016 -185.71705078 139.95541016 -186.875 141.5 C-187.58140625 142.43714844 -188.2878125 143.37429687 -189.015625 144.33984375 C-190.31875405 146.08675494 -191.60088347 147.84956843 -192.859375 149.62890625 C-196.47501362 154.61240815 -198.98258579 157.35888703 -205 159 C-208.4375 159.1875 -208.4375 159.1875 -211 159 C-209.71599195 153.36901499 -207.69002082 149.61429661 -204.1875 145.0625 C-203.46651123 144.10404175 -203.46651123 144.10404175 -202.73095703 143.1262207 C-194.93294619 132.84588888 -186.81522601 122.81849055 -178.07421875 113.32421875 C-175.96046118 110.95569567 -174.01801767 108.50018796 -172.0625 106 C-162.78604725 94.55523756 -151.96322193 83.93147351 -140.359375 74.859375 C-138.04184021 73.03297341 -135.86672859 71.11334725 -133.6875 69.125 C-121.92710783 58.58047725 -108.9080227 48.25503043 -94.8046875 41.0703125 C-92.96432792 40.08730287 -92.96432792 40.08730287 -91.65649414 38.60180664 C-88.45423036 35.5052624 -84.39795348 33.53242266 -80.5625 31.3125 C-79.70333984 30.80138672 -78.84417969 30.29027344 -77.95898438 29.76367188 C-77.12818359 29.28091797 -76.29738281 28.79816406 -75.44140625 28.30078125 C-74.30747437 27.63816284 -74.30747437 27.63816284 -73.15063477 26.9621582 C-71 26 -71 26 -67 26 C-67 25.34 -67 24.68 -67 24 C-66.27554688 23.67386719 -65.55109375 23.34773438 -64.8046875 23.01171875 C-63.35449219 22.35623047 -63.35449219 22.35623047 -61.875 21.6875 C-60.87082031 21.23375 -59.86664063 20.78 -58.83203125 20.3125 C-56.71343157 19.33063863 -54.62802403 18.27659449 -52.5625 17.1875 C-50 16 -50 16 -46 16 C-46 15.34 -46 14.68 -46 14 C-41.60546875 12.53515625 -37.2109375 11.0703125 -32.81640625 9.60546875 C-32.01887939 9.33951904 -31.22135254 9.07356934 -30.3996582 8.79956055 C-28.82293359 8.27419956 -27.24595525 7.74959934 -25.66870117 7.22583008 C-22.09948233 6.03966058 -18.53467495 4.84376952 -14.98046875 3.61328125 C-14.0359082 3.2894043 -14.0359082 3.2894043 -13.07226562 2.95898438 C-11.79467561 2.52076438 -10.51866922 2.07790508 -9.24414062 1.63085938 C-5.92691651 0.50224848 -3.5574946 0 0 0 Z " fill="#383739" transform="translate(327,86)"/>
<path d="M0 0 C5.94 0 11.88 0 18 0 C20.0412295 5.44327867 21.81312656 10.63231419 23.2265625 16.2265625 C23.41971039 16.97787445 23.61285828 17.7291864 23.81185913 18.50326538 C24.21555538 20.0774823 24.61711368 21.65224893 25.01660156 23.22753906 C25.62552031 25.62705035 26.24191185 28.02454983 26.859375 30.421875 C27.25304494 31.96082482 27.64628884 33.49988369 28.0390625 35.0390625 C28.22135406 35.74858063 28.40364563 36.45809875 28.59146118 37.18911743 C29.58151352 41.10714588 30.39727683 45.0039376 31 49 C33.20286513 45.69570231 34.03122824 42.91434253 35.12890625 39.1015625 C35.4207505 38.09360123 35.4207505 38.09360123 35.7184906 37.0652771 C36.12849855 35.64546048 36.53599915 34.22491772 36.94116211 32.80371094 C37.55870039 30.63832326 38.18392348 28.47527404 38.81054688 26.3125 C41.17736163 18.22350809 41.17736163 18.22350809 43 10 C43.66 10 44.32 10 45 10 C45.33 6.7 45.66 3.4 46 0 C51.94 0 57.88 0 64 0 C64.70125 2.3925 65.4025 4.785 66.125 7.25 C67.08137397 10.50057886 68.04075969 13.750266 69 17 C69.25652344 17.87092285 69.51304687 18.7418457 69.77734375 19.63916016 C70.55673029 22.28122236 71.3403716 24.92199029 72.125 27.5625 C72.36621582 28.38202148 72.60743164 29.20154297 72.85595703 30.04589844 C73.9998453 33.88179445 75.21597595 37.63984477 76.66796875 41.37109375 C77.96007201 44.89122257 78.27783648 47.2955136 78 51 C78.66 51 79.32 51 80 51 C80.13792969 50.14148438 80.27585937 49.28296875 80.41796875 48.3984375 C81.92787226 39.58222235 83.98438592 30.86925963 86.125 22.1875 C86.29555908 21.4877002 86.46611816 20.78790039 86.6418457 20.06689453 C87.88014499 15.11985501 87.88014499 15.11985501 89 14 C89.37192046 12.21594402 89.69810295 10.42223085 90 8.625 C90.50784069 5.61763093 91.03403054 2.89790837 92 0 C98.27 0 104.54 0 111 0 C108.01367531 11.94529876 104.87989655 23.79526835 101.0559082 35.50415039 C99.71361368 39.6324417 98.52178009 43.75087643 97.50268555 47.97045898 C96.40285579 52.41090812 95.10808041 56.8018479 93.85546875 61.20117188 C93.54029297 62.32168945 93.54029297 62.32168945 93.21875 63.46484375 C93.03248047 64.120896 92.84621094 64.77694824 92.65429688 65.45288086 C91.6716824 69.27811101 90.85674945 73.14462747 90 77 C83.73 77 77.46 77 71 77 C66.62008705 64.9552394 62.76555389 52.84441886 59.3125 40.5 C59.09787109 39.73397461 58.88324219 38.96794922 58.66210938 38.17871094 C57.81830921 35.12835988 57.02655458 32.15174048 56.48046875 29.03125 C56.24263672 28.02578125 56.24263672 28.02578125 56 27 C55.34 26.67 54.68 26.34 54 26 C53.89042969 26.60223389 53.78085937 27.20446777 53.66796875 27.82495117 C52.47300421 34.11855252 50.880434 40.19178043 49 46.3125 C48.73960937 47.17939453 48.47921875 48.04628906 48.2109375 48.93945312 C47.20847048 52.24303763 46.20645822 55.4901444 44.91015625 58.69140625 C43.75662765 61.61730926 43.11154668 64.55473501 42.4375 67.625 C41.73173236 70.82106695 41.03516633 73.89450102 40 77 C33.73 77 27.46 77 21 77 C18.625 68.375 18.625 68.375 17.88916016 65.69287109 C16.70626328 61.41654008 15.42533295 57.20321591 14 53 C13.54698094 51.44192868 13.1096101 49.87922766 12.6875 48.3125 C12.43484375 47.38050781 12.1821875 46.44851562 11.921875 45.48828125 C11.1897051 42.71782482 10.47338486 39.94468923 9.765625 37.16796875 C9.54688721 36.3174292 9.32814941 35.46688965 9.1027832 34.59057617 C8.66409837 32.88236158 8.23022827 31.17290227 7.80151367 29.4621582 C7.5976001 28.670271 7.39368652 27.87838379 7.18359375 27.0625 C7.00368896 26.35222656 6.82378418 25.64195313 6.63842773 24.91015625 C5.99570836 22.70936012 5.99570836 22.70936012 4 20 C3.41453156 17.74496605 2.90188932 15.47054488 2.4375 13.1875 C2.18871094 11.98480469 1.93992187 10.78210938 1.68359375 9.54296875 C1.07164976 6.37135049 0.53102751 3.18616503 0 0 Z " fill="#142745" transform="translate(376,90)"/>
<path d="M0 0 C1.8871875 0.0309375 1.8871875 0.0309375 3.8125 0.0625 C3.8125 0.7225 3.8125 1.3825 3.8125 2.0625 C9.7525 2.0625 15.6925 2.0625 21.8125 2.0625 C25.76520876 10.2004298 28.70947036 18.43390303 31.48046875 27.0234375 C32.96154171 31.61365343 32.96154171 31.61365343 34.8125 36.0625 C35.4725 36.3925 36.1325 36.7225 36.8125 37.0625 C36.93560547 36.04269043 37.05871094 35.02288086 37.18554688 33.97216797 C37.77590618 30.29069837 38.65879262 27.03603877 39.84375 23.5078125 C40.24207031 22.31671875 40.64039063 21.125625 41.05078125 19.8984375 C41.46714844 18.67382812 41.88351562 17.44921875 42.3125 16.1875 C42.72886719 14.9396875 43.14523437 13.691875 43.57421875 12.40625 C46.67206743 3.20293257 46.67206743 3.20293257 47.8125 2.0625 C49.15517413 1.97618126 50.50224322 1.95543527 51.84765625 1.96484375 C52.65654297 1.96806641 53.46542969 1.97128906 54.29882812 1.97460938 C55.14896484 1.98298828 55.99910156 1.99136719 56.875 2 C57.72900391 2.00451172 58.58300781 2.00902344 59.46289062 2.01367188 C61.57945663 2.02549627 63.69598685 2.04343231 65.8125 2.0625 C62.3041765 13.41295837 57.5283454 24.35663296 52.63671875 35.171875 C51.53720647 37.693979 50.59789054 40.26326238 49.65625 42.84765625 C48.63278097 45.53426246 47.50291716 48.16808446 46.375 50.8125 C43.85671077 56.79534471 41.77533977 62.8779099 39.8125 69.0625 C39.1525 69.0625 38.4925 69.0625 37.8125 69.0625 C37.626875 70.3309375 37.626875 70.3309375 37.4375 71.625 C36.79574676 75.15464283 35.79806471 78.61302353 34.8125 82.0625 C28.8725 82.0625 22.9325 82.0625 16.8125 82.0625 C17.55285345 78.36073277 18.28318759 75.59486268 19.6875 72.1875 C20.04070313 71.31867188 20.39390625 70.44984375 20.7578125 69.5546875 C21.6489779 67.44889667 22.59582524 65.3839459 23.5625 63.3125 C25.18851239 59.08486777 25.45155329 55.82737484 23.89453125 51.52734375 C23.47558594 50.69332031 23.05664062 49.85929687 22.625 49 C20.66557903 44.92661218 18.9098897 40.8542794 17.3125 36.625 C15.31761286 31.34699139 13.1988668 26.1360655 11.015625 20.93359375 C9.83096615 18.10656696 8.65662343 15.27611455 7.5 12.4375 C7.01080078 11.24253906 7.01080078 11.24253906 6.51171875 10.0234375 C5.8125 8.0625 5.8125 8.0625 5.8125 6.0625 C5.1525 6.0625 4.4925 6.0625 3.8125 6.0625 C3.8125 9.6925 3.8125 13.3225 3.8125 17.0625 C2.93207031 17.06507813 2.05164063 17.06765625 1.14453125 17.0703125 C-0.01691406 17.10898438 -1.17835938 17.14765625 -2.375 17.1875 C-3.52355469 17.21070313 -4.67210937 17.23390625 -5.85546875 17.2578125 C-9.51178142 18.14081415 -10.85018659 19.32199632 -13.14482117 22.24514771 C-14.96746067 25.42194384 -14.91357735 28.74689514 -14.89453125 32.3046875 C-14.90965256 33.07305939 -14.92477386 33.84143127 -14.94035339 34.63308716 C-14.98306994 37.06819369 -14.99205205 39.5020569 -15 41.9375 C-15.02315705 43.59638685 -15.04852491 45.2552444 -15.07617188 46.9140625 C-15.14299931 50.96421022 -15.16411745 55.01094128 -15.1875 59.0625 C-21.1275 59.0625 -27.0675 59.0625 -33.1875 59.0625 C-33.1875 40.2525 -33.1875 21.4425 -33.1875 2.0625 C-27.9075 2.0625 -22.6275 2.0625 -17.1875 2.0625 C-17.1875 5.0325 -17.1875 8.0025 -17.1875 11.0625 C-16.5275 11.0625 -15.8675 11.0625 -15.1875 11.0625 C-15.09210937 10.46824219 -14.99671875 9.87398437 -14.8984375 9.26171875 C-14.03421083 6.58831428 -12.96749689 5.6435523 -10.8125 3.875 C-10.20664062 3.36582031 -9.60078125 2.85664063 -8.9765625 2.33203125 C-6.02747273 0.23933654 -3.50403585 -0.05744321 0 0 Z " fill="#162846" transform="translate(777.1875,227.9375)"/>
<path d="M0 0 C6.0100332 4.62384812 9.87512603 9.40158659 11 17 C11.58500351 24.83068988 12.1035495 32.11189906 8 39 C7.443125 40.010625 6.88625 41.02125 6.3125 42.0625 C3.35242412 45.82259638 -0.03481275 48.36392579 -4 51 C-4.71800781 51.54527344 -5.43601562 52.09054687 -6.17578125 52.65234375 C-10.21674651 54.58060518 -13.82969102 54.43725787 -18.25 54.375 C-19.05824219 54.38660156 -19.86648438 54.39820313 -20.69921875 54.41015625 C-27.60660845 54.37700078 -33.95550733 53.30544788 -39.55859375 49.0625 C-40.17863281 48.381875 -40.79867187 47.70125 -41.4375 47 C-42.39462891 45.9790625 -42.39462891 45.9790625 -43.37109375 44.9375 C-47 40.62110312 -47 40.62110312 -47 37 C-47.66 37 -48.32 37 -49 37 C-51.44116849 29.43833176 -51.41780971 18.09186485 -48.25 10.75 C-44.35156693 3.68663694 -38.64064552 -2.04233077 -31 -5 C-19.26128386 -7.22717439 -10.12238708 -6.78199934 0 0 Z " fill="#142746" transform="translate(894,234)"/>
<path d="M0 0 C3.72506581 1.89780815 6.89078453 4.34761466 10.0625 7.05078125 C10.825625 7.66953125 11.58875 8.28828125 12.375 8.92578125 C18.19117197 16.24984965 18.68495443 26.10588049 18.0625 35.05078125 C16.36591253 43.44745145 10.81581265 50.27992414 3.87109375 55.04296875 C-1.01445053 57.76536707 -5.20035739 58.37600426 -10.75 58.30078125 C-11.46269043 58.29401367 -12.17538086 58.28724609 -12.90966797 58.28027344 C-21.58546193 58.10949791 -28.25459489 56.75562035 -34.60546875 50.375 C-37.34930991 47.33135672 -39.17291121 45.15257521 -39.9375 41.05078125 C-40.5975 41.05078125 -41.2575 41.05078125 -41.9375 41.05078125 C-44.52446793 33.28987746 -44.39479297 21.81831817 -40.875 14.36328125 C-32.08340624 0.01520267 -16.12745496 -6.25531801 0 0 Z " fill="#122645" transform="translate(459.9375,229.94921875)"/>
<path d="M0 0 C5.94 0 11.88 0 18 0 C18 10.56 18 21.12 18 32 C20.64 30.02 23.28 28.04 26 26 C32.36145702 22.81927149 38.97995577 23.41547531 45.875 24.75 C52.74141257 27.49656503 55.81801053 30.51816961 59 37 C59.94337376 39.83012127 60.12172829 41.54299918 60.11352539 44.47143555 C60.11344986 45.37214279 60.11337433 46.27285004 60.11329651 47.20085144 C60.10813522 48.16968765 60.10297394 49.13852386 60.09765625 50.13671875 C60.0962413 51.13129593 60.09482635 52.12587311 60.09336853 53.15058899 C60.08776761 56.32958982 60.07521496 59.50852043 60.0625 62.6875 C60.05748512 64.84179586 60.05292219 66.99609282 60.04882812 69.15039062 C60.03779787 74.43362084 60.02053262 79.71679851 60 85 C54.06 85 48.12 85 42 85 C41.97421875 82.24269531 41.9484375 79.48539062 41.921875 76.64453125 C41.88343563 73.96693823 41.83828158 71.28953656 41.79248047 68.61206055 C41.76429741 66.75473197 41.7430696 64.89728405 41.72900391 63.03979492 C41.70753716 60.36575339 41.66086931 57.69314265 41.609375 55.01953125 C41.60814636 54.19226028 41.60691772 53.36498932 41.60565186 52.51264954 C41.5049462 48.52688129 41.27232323 46.44383105 39.14160156 42.97119141 C36.32548555 40.37915759 34.77667513 40.41615384 31 40.5625 C29.96875 40.58441406 28.9375 40.60632813 27.875 40.62890625 C24.10928912 41.05708576 24.10928912 41.05708576 21 43 C20.0248024 48.10647448 19.80225492 53.16061783 19.68359375 58.33984375 C19.66281265 59.10680069 19.64203156 59.87375763 19.62062073 60.66395569 C19.55579168 63.08838872 19.49655379 65.51292013 19.4375 67.9375 C19.39425121 69.59180662 19.35063501 71.24610367 19.30664062 72.90039062 C19.1994955 76.9334949 19.09992926 80.9666848 19 85 C12.73 85 6.46 85 0 85 C0 56.95 0 28.9 0 0 Z " fill="#1A2D49" transform="translate(695,83)"/>
<path d="M0 0 C5.94 0 11.88 0 18 0 C18 15.18 18 30.36 18 46 C19.65 44.35 21.3 42.7 23 41 C23.825 40.18660156 24.65 39.37320313 25.5 38.53515625 C26.325 37.71917969 27.15 36.90320313 28 36.0625 C28.825 35.24910156 29.65 34.43570313 30.5 33.59765625 C33.1266035 31.03266357 33.1266035 31.03266357 35.13671875 27.70703125 C38.83539971 24.21018827 40.97328121 24.37028222 45.90429688 24.47265625 C47.34385742 24.54806641 47.34385742 24.54806641 48.8125 24.625 C49.79154297 24.65207031 50.77058594 24.67914063 51.77929688 24.70703125 C54.18846621 24.77754352 56.59308819 24.87601432 59 25 C59 25.66 59 26.32 59 27 C58.34 27 57.68 27 57 27 C56.61714844 27.86830444 56.61714844 27.86830444 56.2265625 28.75415039 C54.87377591 31.23111772 53.34982976 32.92114584 51.375 34.93359375 C50.31539062 36.0309082 50.31539062 36.0309082 49.234375 37.15039062 C47.74674304 38.67313278 46.25716237 40.19397364 44.765625 41.71289062 C43.70601562 42.81213867 43.70601562 42.81213867 42.625 43.93359375 C41.97789062 44.59415771 41.33078125 45.25472168 40.6640625 45.93530273 C38.85000685 48.18610506 37.937 50.2792099 37 53 C37.99 53.33 38.98 53.66 40 54 C41.4387207 55.62304688 41.4387207 55.62304688 42.92578125 57.71875 C43.47556641 58.48703125 44.02535156 59.2553125 44.59179688 60.046875 C45.15962891 60.85640625 45.72746094 61.6659375 46.3125 62.5 C46.86873047 63.27859375 47.42496094 64.0571875 47.99804688 64.859375 C49.68246168 67.2281446 51.34576657 69.61006675 53 72 C53.57927246 72.8353125 54.15854492 73.670625 54.75537109 74.53125 C55.30402832 75.335625 55.85268555 76.14 56.41796875 76.96875 C56.91449951 77.69513672 57.41103027 78.42152344 57.92260742 79.16992188 C59 81 59 81 59 83 C59.66 83 60.32 83 61 83 C61 83.66 61 84.32 61 85 C42.40629616 86.80239944 42.40629616 86.80239944 36.96484375 82.7265625 C34.996758 79.89767623 33.50030789 77.09673578 32 74 C30.686369 72.31776068 29.35500623 70.6490948 28 69 C26.95548562 67.02288349 25.94301862 65.02749004 25 63 C22.53199953 64.15173355 20.95216435 65.04783565 19 67 C18.63168919 68.93257855 18.63168919 68.93257855 18.5859375 71.1328125 C18.53252197 72.22166748 18.53252197 72.22166748 18.47802734 73.33251953 C18.44402832 74.25403809 18.4100293 75.17555664 18.375 76.125 C18.25125 79.05375 18.1275 81.9825 18 85 C12.06 85 6.12 85 0 85 C0 56.95 0 28.9 0 0 Z " fill="#162945" transform="translate(883,83)"/>
<path d="M0 0 C5.45288722 3.88862462 9.48135861 8.57148466 11.625 14.9375 C11.84996574 17.28103668 11.97897205 19.63473862 12.0390625 21.98828125 C12.05842865 22.64708786 12.0777948 23.30589447 12.0977478 23.98466492 C12.15715941 26.07298143 12.20377291 28.16135424 12.25 30.25 C12.28821532 31.67254905 12.32726909 33.09507584 12.3671875 34.51757812 C12.46282796 37.99068074 12.54699973 41.46395132 12.625 44.9375 C13.615 45.2675 14.605 45.5975 15.625 45.9375 C15.65185938 48.08326637 15.67133088 50.22912645 15.6875 52.375 C15.69910156 53.56996094 15.71070313 54.76492187 15.72265625 55.99609375 C15.625 58.9375 15.625 58.9375 14.625 59.9375 C3.18416146 61.06865635 3.18416146 61.06865635 -1.5625 57.625 C-2.83866677 55.73275272 -4.1089703 53.83654455 -5.375 51.9375 C-5.7875 52.33582031 -6.2 52.73414063 -6.625 53.14453125 C-13.07664322 59.06333786 -19.08090473 61.60704038 -27.91796875 61.28125 C-32.78389751 60.60048413 -36.61079557 58.86847002 -39.9453125 55.21875 C-44.43736541 49.16089579 -45.38598718 43.40246595 -44.375 35.9375 C-42.23086629 30.50873591 -38.35894176 27.52815319 -33.25 24.9375 C-24.65564323 21.68469915 -15.40417826 22.53600492 -6.375 22.9375 C-6.79757276 21.4539999 -7.23856322 19.97573576 -7.6875 18.5 C-7.93113281 17.67628906 -8.17476562 16.85257813 -8.42578125 16.00390625 C-8.73902344 15.32199219 -9.05226563 14.64007813 -9.375 13.9375 C-12.20578091 12.99390636 -14.2940314 12.67930119 -17.25 12.5625 C-18.09304688 12.51351562 -18.93609375 12.46453125 -19.8046875 12.4140625 C-22.64607658 12.72661575 -22.64607658 12.72661575 -24.67578125 15.50390625 C-27.375 17.9375 -27.375 17.9375 -31.36328125 17.98828125 C-32.80922103 17.77039991 -34.25102862 17.52343021 -35.6875 17.25 C-36.42806641 17.13205078 -37.16863281 17.01410156 -37.93164062 16.89257812 C-39.75030728 16.59924479 -41.56340126 16.27171974 -43.375 15.9375 C-41.02062845 8.52329484 -38.31375639 3.82320358 -31.375 -0.0625 C-22.71953835 -3.6896753 -8.47254584 -4.41793128 0 0 Z " fill="#182B47" transform="translate(809.375,109.0625)"/>
<path d="M0 0 C0.73347656 -0.00773437 1.46695313 -0.01546875 2.22265625 -0.0234375 C8.74559938 -0.0000996 13.72718968 1.44667577 19.1875 5.125 C20.30705078 5.86363281 20.30705078 5.86363281 21.44921875 6.6171875 C23.58978629 8.32148699 25.03142421 9.9469002 26.5 12.25 C26.5 12.91 26.5 13.57 26.5 14.25 C27.16 14.25 27.82 14.25 28.5 14.25 C29.01928216 15.84802902 29.51407932 17.45401258 30 19.0625 C30.2784375 19.95582031 30.556875 20.84914063 30.84375 21.76953125 C31.5 25.25 31.5 25.25 31.5 36.25 C16.98 36.25 2.46 36.25 -12.5 36.25 C-9.53241024 43.42938153 -9.53241024 43.42938153 -3.8125 47.9375 C2.68423316 49.06576294 2.68423316 49.06576294 8.55078125 46.83984375 C9.21464844 46.27394531 9.87851562 45.70804688 10.5625 45.125 C12.5625 43.46484375 12.5625 43.46484375 14.5 42.25 C18.0625 42.6875 18.0625 42.6875 21.5 44.25 C22.8120243 44.7928179 24.12451353 45.3345136 25.4375 45.875 C26.448125 46.32875 27.45875 46.7825 28.5 47.25 C26.85193863 53.47600961 21.95089155 56.51644256 16.9375 60.0625 C9.03013627 63.91480541 -2.99374206 63.3568918 -11.55078125 61.63671875 C-19.0471707 58.99024844 -24.35357484 53.78121559 -28.4375 47.0625 C-32.2417355 36.99246484 -31.90881163 24.07668225 -27.5 14.25 C-20.76686493 4.16730026 -11.88636322 -0.12533951 0 0 Z " fill="#142846" transform="translate(597.5,106.75)"/>
<path d="M0 0 C6.61924952 5.05922999 11.33820657 9.17597367 13.57421875 17.44921875 C13.57421875 22.06921875 13.57421875 26.68921875 13.57421875 31.44921875 C0.37421875 31.44921875 -12.82578125 31.44921875 -26.42578125 31.44921875 C-24.13330834 37.99139796 -24.13330834 37.99139796 -19.42578125 41.44921875 C-16.32447298 41.96126071 -16.32447298 41.96126071 -12.98828125 41.88671875 C-11.87582031 41.90605469 -10.76335938 41.92539062 -9.6171875 41.9453125 C-5.81576357 41.35439348 -4.28383496 39.93341346 -1.42578125 37.44921875 C3.73352825 37.44921875 7.310707 39.80584147 11.57421875 42.44921875 C9.48736401 47.57149856 5.23110594 51.57290607 0.57421875 54.44921875 C-8.0657461 57.3616881 -17.9339422 58.15649259 -26.73046875 55.421875 C-34.05007547 51.76207164 -39.36193694 46.29050778 -42.578125 38.74609375 C-44.79191755 30.13576698 -45.40459786 18.62656823 -40.98828125 10.69921875 C-31.69628186 -1.82858278 -14.29089898 -9.13604975 0 0 Z " fill="#132644" transform="translate(721.42578125,231.55078125)"/>
<path d="M0 0 C6.43263034 4.54720421 11.62000931 9.42730236 14 17 C14 21.95 14 26.9 14 32 C0.8 32 -12.4 32 -26 32 C-23.62845655 38.51346705 -23.62845655 38.51346705 -19 42 C-14.89337517 43.36887494 -11.12856181 43.88760186 -7.0234375 42.17578125 C-3.3906331 40.22814835 -3.3906331 40.22814835 -1 37 C3.85963179 37.60745397 7.7405518 39.72758967 12 42 C11.03395878 46.4703084 9.20250398 49.50946824 5.3203125 52.13671875 C3.57610368 53.1435689 1.78838009 54.07387459 0 55 C-0.56460938 55.35964844 -1.12921875 55.71929687 -1.7109375 56.08984375 C-8.78552995 58.90277897 -19.71857109 57.93600897 -26.75 55.3125 C-34.24597168 51.65314896 -38.38104705 45.32952496 -42 38 C-44.53164948 28.53645313 -43.65728818 18.63134671 -38.93359375 10.06640625 C-34.38516764 3.08614836 -28.43917105 -0.39331835 -20.47265625 -2.49609375 C-13.34200155 -3.94926035 -6.60733369 -3.14445398 0 0 Z " fill="#122544" transform="translate(599,231)"/>
<path d="M0 0 C0 0.66 0 1.32 0 2 C0.7425 2.0825 1.485 2.165 2.25 2.25 C5.54302595 3.14809799 6.85976788 4.38416074 9 7 C9 7.66 9 8.32 9 9 C9.598125 9.165 10.19625 9.33 10.8125 9.5 C14.47580157 12.01197822 14.88107003 14.7480661 16 19 C16 23.62 16 28.24 16 33 C2.47 33 -11.06 33 -25 33 C-22.525 37.455 -22.525 37.455 -20 42 C-14.63755966 43.34061009 -9.50167009 43.58946465 -4 43 C-1.1125127 41.07606449 -1.1125127 41.07606449 1 39 C5.67998071 39 9.94747886 41.837985 14 44 C11.14720614 50.09998318 7.27993183 53.76493868 1.125 56.375 C-7.58997696 59.19280292 -18.04114597 59.80358226 -26.5625 56.0625 C-34.15643465 51.53682178 -38.66251591 44.37810963 -41 36 C-42.33446741 27.75660111 -42.37850608 19.03751354 -38 11.75 C-33.42789675 5.7611887 -28.10413213 0.74699316 -20.484375 -0.76171875 C-13.92404387 -1.3909329 -6.28077361 -2.0935912 0 0 Z " fill="#152744" transform="translate(1020,230)"/>
<path d="M0 0 C5.17570766 6.59902727 6.2983868 13.29064597 6.109375 21.4765625 C6.10371521 22.4182579 6.09805542 23.35995331 6.09222412 24.33018494 C6.07003111 27.30530033 6.01986825 30.27916173 5.96875 33.25390625 C5.94866288 35.28448768 5.93041601 37.31508819 5.9140625 39.34570312 C5.87022253 44.29474585 5.80131568 49.24286427 5.71875 54.19140625 C-0.22125 54.19140625 -6.16125 54.19140625 -12.28125 54.19140625 C-12.31863281 51.33871094 -12.35601563 48.48601562 -12.39453125 45.546875 C-12.44073133 42.78662407 -12.49197046 40.02650958 -12.54370117 37.26635742 C-12.5769725 35.34684527 -12.60499754 33.42723477 -12.62768555 31.50756836 C-12.66119121 28.74941053 -12.71350403 25.99215582 -12.76953125 23.234375 C-12.77592117 22.37490768 -12.7823111 21.51544037 -12.78889465 20.62992859 C-12.81858589 19.42902336 -12.81858589 19.42902336 -12.84887695 18.20385742 C-12.86553154 17.14795662 -12.86553154 17.14795662 -12.88252258 16.07072449 C-13.40977696 13.58562133 -14.25430359 12.69540932 -16.28125 11.19140625 C-21.68220741 10.66873295 -24.84729267 10.800733 -29.28125 14.19140625 C-32.29609776 17.20625401 -31.63833856 20.65039336 -31.6953125 24.69921875 C-31.71467865 25.53983856 -31.7340448 26.38045837 -31.7539978 27.24655151 C-31.81386658 29.93639928 -31.86020771 32.62628968 -31.90625 35.31640625 C-31.9444231 37.13803969 -31.98347444 38.95965495 -32.0234375 40.78125 C-32.12123058 45.25120849 -32.20073976 49.72096902 -32.28125 54.19140625 C-37.89125 54.19140625 -43.50125 54.19140625 -49.28125 54.19140625 C-49.28125 35.38140625 -49.28125 16.57140625 -49.28125 -2.80859375 C-44.00125 -2.80859375 -38.72125 -2.80859375 -33.28125 -2.80859375 C-33.28125 -0.82859375 -33.28125 1.15140625 -33.28125 3.19140625 C-32.476875 2.40765625 -31.6725 1.62390625 -30.84375 0.81640625 C-22.67445473 -5.9056479 -8.28685617 -6.3786985 0 0 Z " fill="#172946" transform="translate(964.28125,232.80859375)"/>
<path d="M0 0 C-2 2 -4 4 -6 6 C2.415 5.505 2.415 5.505 11 5 C9.68 6.32 8.36 7.64 7 9 C6.030625 8.814375 5.06125 8.62875 4.0625 8.4375 C-2.0713332 7.26429282 -7.53380453 10.52322141 -13 13 C-14.3924292 13.63059326 -14.3924292 13.63059326 -15.81298828 14.27392578 C-27.34001271 19.54949758 -38.65997386 24.88112493 -49.1328125 32.0625 C-52.34060985 34.23016688 -55.62932208 36.09550879 -59 38 C-74.5648436 47.67691677 -88.54369465 59.66705075 -101.85546875 72.19921875 C-104 74 -104 74 -106 74 C-106.25652344 74.59554687 -106.51304687 75.19109375 -106.77734375 75.8046875 C-108.11829081 78.21239436 -109.42461783 79.40605636 -111.5625 81.125 C-115.63955841 84.57764406 -119.14118301 88.34563834 -122.6640625 92.35546875 C-124.1956818 94.08942572 -125.75246807 95.80154208 -127.3359375 97.48828125 C-134.86372461 105.51548466 -141.41696309 114.19494869 -148 123 C-148.86051885 124.14725412 -149.7211828 125.29439943 -150.58203125 126.44140625 C-151.71705078 127.95541016 -151.71705078 127.95541016 -152.875 129.5 C-153.58140625 130.43714844 -154.2878125 131.37429687 -155.015625 132.33984375 C-156.31875405 134.08675494 -157.60088347 135.84956843 -158.859375 137.62890625 C-162.47501362 142.61240815 -164.98258579 145.35888703 -171 147 C-174.4375 147.1875 -174.4375 147.1875 -177 147 C-175.71599195 141.36901499 -173.69002082 137.61429661 -170.1875 133.0625 C-169.46651123 132.10404175 -169.46651123 132.10404175 -168.73095703 131.1262207 C-160.93294619 120.84588888 -152.81522601 110.81849055 -144.07421875 101.32421875 C-141.96046118 98.95569567 -140.01801767 96.50018796 -138.0625 94 C-128.78604725 82.55523756 -117.96322193 71.93147351 -106.359375 62.859375 C-104.04184021 61.03297341 -101.86672859 59.11334725 -99.6875 57.125 C-87.92710783 46.58047725 -74.9080227 36.25503043 -60.8046875 29.0703125 C-58.96432792 28.08730287 -58.96432792 28.08730287 -57.65649414 26.60180664 C-54.45423036 23.5052624 -50.39795348 21.53242266 -46.5625 19.3125 C-45.70333984 18.80138672 -44.84417969 18.29027344 -43.95898438 17.76367188 C-43.12818359 17.28091797 -42.29738281 16.79816406 -41.44140625 16.30078125 C-40.30747437 15.63816284 -40.30747437 15.63816284 -39.15063477 14.9621582 C-37 14 -37 14 -33 14 C-33 13.34 -33 12.68 -33 12 C-31.91332031 11.51080078 -31.91332031 11.51080078 -30.8046875 11.01171875 C-29.35449219 10.35623047 -29.35449219 10.35623047 -27.875 9.6875 C-26.36873047 9.006875 -26.36873047 9.006875 -24.83203125 8.3125 C-22.71343157 7.33063863 -20.62802403 6.27659449 -18.5625 5.1875 C-16 4 -16 4 -12 4 C-12 3.34 -12 2.68 -12 2 C-10.75579353 1.4654744 -9.50429064 0.94791389 -8.25 0.4375 C-7.55390625 0.14746094 -6.8578125 -0.14257812 -6.140625 -0.44140625 C-3.69987216 -1.07831803 -2.3596345 -0.80248831 0 0 Z " fill="#3D3E41" transform="translate(293,98)"/>
<path d="M0 0 C1.11109131 0.00700928 1.11109131 0.00700928 2.24462891 0.01416016 C9.88255505 0.21825855 16.37422974 2.18698649 22.75 6.4375 C22.17365861 11.19231646 20.19931479 14.40798212 17.75 18.4375 C14.66008394 17.9693309 12.3947504 17.26335804 9.5625 15.875 C4.27149501 13.49114061 -1.80804358 13.62351453 -7.25 15.4375 C-6.84995382 18.39728632 -6.84995382 18.39728632 -5.25 21.4375 C-1.12407677 23.46426931 2.70397982 24.44725926 7.1875 25.3125 C13.31537436 26.59532491 18.58438069 29.22240256 22.97265625 33.7109375 C26.16013748 38.60074387 25.65714727 43.8253725 24.75 49.4375 C22.05112813 55.05289469 17.77771094 59.12033524 12.07421875 61.6015625 C7.84810763 62.66429785 3.90559436 62.82068395 -0.4375 62.8125 C-1.27885498 62.81161377 -2.12020996 62.81072754 -2.98706055 62.80981445 C-9.69594904 62.68259807 -15.21387102 61.45556449 -21.25 58.4375 C-21.90742187 58.12941406 -22.56484375 57.82132813 -23.2421875 57.50390625 C-24.59639828 56.85176327 -25.92775185 56.15222873 -27.25 55.4375 C-25.60821735 50.66140502 -22.98453298 46.64367096 -20.25 42.4375 C-18.27 43.0975 -16.29 43.7575 -14.25 44.4375 C-14.25 45.0975 -14.25 45.7575 -14.25 46.4375 C-7.13153061 48.58647189 0.54741601 49.83836133 7.75 47.4375 C7.56584568 44.49658413 7.56584568 44.49658413 6.75 41.4375 C3.49870497 39.21539189 -0.11767476 38.80996316 -3.9375 38.125 C-11.24435656 36.59671887 -18.35858159 34.75449964 -22.8125 28.3125 C-25.0534717 23.59303426 -25.01074983 18.52453418 -24.25 13.4375 C-21.19354141 7.21138065 -16.56364613 3.71224584 -10.2277832 1.07250977 C-6.83245368 -0.01763368 -3.54139472 -0.04913011 0 0 Z " fill="#172A47" transform="translate(660.25,106.5625)"/>
<path d="M0 0 C0 5.28 0 10.56 0 16 C-0.66 16 -1.32 16 -2 16 C-2 15.34 -2 14.68 -2 14 C-3.62580966 14.11398665 -5.25067157 14.24155659 -6.875 14.375 C-7.77992188 14.44460937 -8.68484375 14.51421875 -9.6171875 14.5859375 C-12.17941903 14.79568132 -12.17941903 14.79568132 -14 17 C-14.45811675 18.97235333 -14.45811675 18.97235333 -14.625 21.125 C-14.74875 22.40375 -14.8725 23.6825 -15 25 C-10.71 25 -6.42 25 -2 25 C-2 29.62 -2 34.24 -2 39 C-6.29 39 -10.58 39 -15 39 C-15 53.19 -15 67.38 -15 82 C-20.61 82 -26.22 82 -32 82 C-32 67.81 -32 53.62 -32 39 C-34.97 39 -37.94 39 -41 39 C-41 34.38 -41 29.76 -41 25 C-38.03 25 -35.06 25 -32 25 C-32.04640625 24.2265625 -32.0928125 23.453125 -32.140625 22.65625 C-32.37472355 15.90083467 -32.30763249 10.45717664 -28 5 C-20.86629746 -1.909155 -9.26965879 -3.08988626 0 0 Z " fill="#152846" transform="translate(417,205)"/>
<path d="M0 0 C5.94 0 11.88 0 18 0 C22.72240972 11.42164211 27.16061485 22.94024585 30 35 C30.66 35 31.32 35 32 35 C32.15855469 34.20078125 32.31710937 33.4015625 32.48046875 32.578125 C33.95601668 25.63245185 35.93149996 19.37124178 38.79296875 12.87890625 C40.55660337 8.67243791 41.77335599 4.39009437 43 0 C48.94 0 54.88 0 61 0 C60.08303533 5.0849859 58.91360643 9.45577675 56.6875 14.125 C54.33173053 19.07142504 52.56357728 24.0833142 50.88012695 29.29345703 C47.83237859 38.68420465 44.42316909 48.15366182 40 57 C34.06 57 28.12 57 22 57 C18.95853205 49.78737599 16.04064306 42.55024401 13.2578125 35.234375 C12.01837207 32.04724246 10.70946422 28.89837666 9.375 25.75 C7.89959756 22.26143161 6.56885957 18.80173516 5.4375 15.1875 C4.51650998 12.26573857 3.40005199 9.80751588 1.8125 7.1875 C0 4 0 4 0 0 Z " fill="#142745" transform="translate(615,230)"/>
<path d="M0 0 C2.1346875 0.0309375 2.1346875 0.0309375 4.3125 0.0625 C4.3125 5.6725 4.3125 11.2825 4.3125 17.0625 C2.45625 17.124375 0.6 17.18625 -1.3125 17.25 C-7.17402978 17.72058326 -9.77199963 18.72370229 -13.6875 23.0625 C-15.26980808 26.22711615 -14.92907813 29.65329367 -15.00390625 33.1328125 C-15.02468735 33.92904022 -15.04546844 34.72526794 -15.06687927 35.54562378 C-15.13234149 38.09282685 -15.19124415 40.64013425 -15.25 43.1875 C-15.2931884 44.91277127 -15.33680279 46.63803193 -15.38085938 48.36328125 C-15.48882245 52.59624872 -15.58792007 56.82929371 -15.6875 61.0625 C-21.9575 61.0625 -28.2275 61.0625 -34.6875 61.0625 C-34.6875 41.2625 -34.6875 21.4625 -34.6875 1.0625 C-29.0775 1.0625 -23.4675 1.0625 -17.6875 1.0625 C-17.6875 4.3625 -17.6875 7.6625 -17.6875 11.0625 C-17.0275 11.0625 -16.3675 11.0625 -15.6875 11.0625 C-15.378125 9.9796875 -15.378125 9.9796875 -15.0625 8.875 C-13.20615956 5.07794 -11.09282197 3.5643692 -7.6875 1.0625 C-4.80538698 0.10179566 -2.98899956 -0.04331883 0 0 Z " fill="#1B2D49" transform="translate(869.6875,106.9375)"/>
<path d="M0 0 C0 5.61 0 11.22 0 17 C-4.83398438 17.1953125 -4.83398438 17.1953125 -9.66796875 17.390625 C-13.52128522 18.09533469 -15.2341839 19.27485767 -18 22 C-18.86965506 24.12946603 -18.86965506 24.12946603 -19 26 C-19.66 26 -20.32 26 -21 26 C-21 37.55 -21 49.1 -21 61 C-26.94 61 -32.88 61 -39 61 C-39 41.2 -39 21.4 -39 1 C-33.39 1 -27.78 1 -22 1 C-21.34 3.31 -20.68 5.62 -20 8 C-19.46890625 7.50628906 -18.9378125 7.01257813 -18.390625 6.50390625 C-17.33101562 5.54291016 -17.33101562 5.54291016 -16.25 4.5625 C-15.55390625 3.92441406 -14.8578125 3.28632812 -14.140625 2.62890625 C-9.489558 -0.91031809 -6.19362829 0 0 0 Z " fill="#182C48" transform="translate(564,107)"/>
<path d="M0 0 C0 5.28 0 10.56 0 16 C-1.69125 15.896875 -3.3825 15.79375 -5.125 15.6875 C-9.09006438 15.67217114 -11.53990102 15.79652266 -14.625 18.375 C-18.33622333 22.47687842 -18.19867417 25.53109413 -18.31640625 30.8515625 C-18.33718735 31.62559418 -18.35796844 32.39962585 -18.37937927 33.19711304 C-18.44483448 35.67298392 -18.50374087 38.14896202 -18.5625 40.625 C-18.60568907 42.30209448 -18.64930348 43.97917807 -18.69335938 45.65625 C-18.80131342 49.77072498 -18.90041614 53.88527977 -19 58 C-24.94 58 -30.88 58 -37 58 C-37 39.19 -37 20.38 -37 1 C-31.39 1 -25.78 1 -20 1 C-19.67 3.31 -19.34 5.62 -19 8 C-18.59007812 7.50628906 -18.18015625 7.01257813 -17.7578125 6.50390625 C-17.21898437 5.86324219 -16.68015625 5.22257813 -16.125 4.5625 C-15.59132813 3.92441406 -15.05765625 3.28632813 -14.5078125 2.62890625 C-10.72150901 -1.4614786 -5.17483745 -0.06017253 0 0 Z " fill="#1B2C49" transform="translate(524,229)"/>
<path d="M0 0 C-2.637656 3.31150972 -6.00518105 4.21085172 -9.875 5.5 C-33.54359709 13.90518209 -54.45692452 28.52699704 -74 44 C-74.88300781 44.69609375 -75.76601562 45.3921875 -76.67578125 46.109375 C-81.34790718 49.72233716 -81.34790718 49.72233716 -85.6640625 53.734375 C-87 55 -87 55 -89 55 C-89 55.66 -89 56.32 -89 57 C-90.2578125 58.234375 -90.2578125 58.234375 -92.125 59.75 C-101.45774206 67.68532614 -110.14006031 76.61027339 -118 86 C-118.79277344 86.91523438 -119.58554688 87.83046875 -120.40234375 88.7734375 C-130.24171092 100.16837891 -140.1185169 111.88775876 -147.4375 125.09375 C-149 127 -149 127 -151.6875 127.78125 C-152.8321875 127.88953125 -152.8321875 127.88953125 -154 128 C-154 127.34 -154 126.68 -154 126 C-154.54269531 126.5053125 -155.08539063 127.010625 -155.64453125 127.53125 C-156.71767578 128.50578125 -156.71767578 128.50578125 -157.8125 129.5 C-158.87404297 130.47453125 -158.87404297 130.47453125 -159.95703125 131.46875 C-162 133 -162 133 -165 133 C-163.53479453 128.66808818 -161.32564555 125.57676652 -158.5 122 C-157.59474264 120.84789933 -156.68980375 119.69554836 -155.78515625 118.54296875 C-155.32254395 117.95692871 -154.85993164 117.37088867 -154.38330078 116.76708984 C-153.04862288 115.06211302 -151.73698702 113.34225179 -150.43359375 111.61328125 C-145.26701433 104.76914945 -139.80840604 98.31253184 -134 92 C-132.89140179 90.73303062 -131.7870447 89.46233444 -130.6875 88.1875 C-116.58329084 72.04966068 -116.58329084 72.04966068 -109.1875 65.87109375 C-106.81755691 63.843946 -104.54691445 61.73099678 -102.27124023 59.59936523 C-96.72385061 54.40705927 -91.08368471 49.5602579 -85 45 C-83.98035156 44.19691406 -82.96070313 43.39382812 -81.91015625 42.56640625 C-76.24508382 38.10478615 -70.56559584 33.93728424 -64.296875 30.34375 C-62.11734187 29.06864899 -60.07004637 27.6942184 -58 26.25 C-17.45318049 -1.01916382 -17.45318049 -1.01916382 0 0 Z " fill="#EAEDED" transform="translate(298,105)"/>
<path d="M0 0 C5.61 0 11.22 0 17 0 C17 18.48 17 36.96 17 56 C11.39 56 5.78 56 0 56 C0 37.52 0 19.04 0 0 Z " fill="#102340" transform="translate(493,111)"/>
<path d="M0 0 C3.62425252 1.7779352 5.53487471 3.3488246 7.875 6.625 C9.64387537 11.93162611 10.25187047 17.0541302 8.015625 22.31640625 C5.944723 25.7870846 3.75968402 29.32902932 0 31 C-4.66712168 31.70632684 -8.06869701 31.43115879 -12.375 29.4375 C-17.19776961 24.95921394 -18.16946324 20.80121154 -18.4375 14.4375 C-18.28300436 9.54065981 -17.46684857 6.64931429 -14 3 C-9.51781782 -0.05603331 -5.29703078 -0.9409895 0 0 Z " fill="#F0F1F2" transform="translate(879,243)"/>
<path d="M0 0 C4.32240023 1.71095009 5.94701815 3.89977089 8 8 C8.3984375 11.15625 8.3984375 11.15625 8.375 14.5 C8.38273437 15.6034375 8.39046875 16.706875 8.3984375 17.84375 C7.79209697 22.64691814 5.95978297 25.15447691 2.375 28.3125 C-1.95185639 30.47592819 -5.25381102 30.69434987 -10 30 C-13.75279425 28.66567316 -15.36243079 26.78918145 -17.3125 23.4375 C-19.46084282 18.67607081 -19.86105732 14.14051218 -19 9 C-14.53591102 0.23125379 -9.2836262 -1.00699066 0 0 Z " fill="#F2F3F4" transform="translate(453,244)"/>
<path d="M0 0 C-2 2 -4 4 -6 6 C2.415 5.505 2.415 5.505 11 5 C9.68 6.32 8.36 7.64 7 9 C6.030625 8.814375 5.06125 8.62875 4.0625 8.4375 C-2.0713332 7.26429282 -7.53380453 10.52322141 -13 13 C-13.92828613 13.42039551 -14.85657227 13.84079102 -15.81298828 14.27392578 C-27.36495861 19.56091457 -38.57560981 24.9661867 -49.11328125 32.08203125 C-60.02579121 39.33242691 -60.02579121 39.33242691 -64.2734375 38.6171875 C-64.84320313 38.41351563 -65.41296875 38.20984375 -66 38 C-65.37166879 35.06778769 -64.61153242 32.54452487 -63 30 C-61.0625 28.9375 -61.0625 28.9375 -59 28 C-58.55132568 27.54133545 -58.10265137 27.0826709 -57.64038086 26.61010742 C-54.46407431 23.49242002 -50.39351476 21.52985357 -46.5625 19.3125 C-45.70333984 18.80138672 -44.84417969 18.29027344 -43.95898438 17.76367188 C-43.12818359 17.28091797 -42.29738281 16.79816406 -41.44140625 16.30078125 C-40.30747437 15.63816284 -40.30747437 15.63816284 -39.15063477 14.9621582 C-37 14 -37 14 -33 14 C-33 13.34 -33 12.68 -33 12 C-32.27554688 11.67386719 -31.55109375 11.34773438 -30.8046875 11.01171875 C-29.35449219 10.35623047 -29.35449219 10.35623047 -27.875 9.6875 C-26.36873047 9.006875 -26.36873047 9.006875 -24.83203125 8.3125 C-22.71343157 7.33063863 -20.62802403 6.27659449 -18.5625 5.1875 C-16 4 -16 4 -12 4 C-12 3.34 -12 2.68 -12 2 C-10.75579353 1.4654744 -9.50429064 0.94791389 -8.25 0.4375 C-7.55390625 0.14746094 -6.8578125 -0.14257812 -6.140625 -0.44140625 C-3.69987216 -1.07831803 -2.3596345 -0.80248831 0 0 Z " fill="#494A4E" transform="translate(293,98)"/>
<path d="M0 0 C2.33052781 2.33052781 2.35649327 2.94040049 2.47265625 6.125 C2.33941405 11.72341192 -0.06919618 14.8207421 -3.5625 19 C-4.11317139 19.68989014 -4.66384277 20.37978027 -5.23120117 21.09057617 C-6.32018083 22.45384349 -7.41672856 23.81110672 -8.52148438 25.16162109 C-10.38341759 27.47673951 -12.08716923 29.89466261 -13.8125 32.3125 C-16.84901718 36.17447816 -19.24960911 37.70443885 -24 39 C-27.4375 39.1875 -27.4375 39.1875 -30 39 C-28.69613454 33.09066826 -26.35806296 29.19997014 -22.6875 24.4375 C-22.21376953 23.80392578 -21.74003906 23.17035156 -21.25195312 22.51757812 C-16.62625219 16.37317921 -12.49345084 11.27977441 -6 7 C-5.67 6.01 -5.34 5.02 -5 4 C-3.37667033 2.61423077 -1.71275535 1.27358732 0 0 Z " fill="#2F2E30" transform="translate(146,206)"/>
<path d="M0 0 C5.53846154 3.07692308 5.53846154 3.07692308 7 6 C7.42071592 9.05920574 7.48514117 11.9467746 7 15 C4.81840855 17.75569447 3.12822506 19.43588747 0 21 C-4.46192145 21.12059247 -7.9596498 20.78660625 -11.5625 18.0625 C-13.6316835 13.6542395 -14.02540786 9.77479997 -13 5 C-9.93340143 0.1237832 -5.46791588 -0.87877219 0 0 Z " fill="#1D304D" transform="translate(505,81)"/>
<path d="M0 0 C14.52 0 29.04 0 44 0 C44 0.33 44 0.66 44 1 C39.71 1.66 35.42 2.32 31 3 C31 3.66 31 4.32 31 5 C31.66 5.33 32.32 5.66 33 6 C33 6.66 33 7.32 33 8 C32.113125 7.7525 31.22625 7.505 30.3125 7.25 C26.92028814 6.64977039 26.92028814 6.64977039 24.3125 8.8125 C23.549375 9.534375 22.78625 10.25625 22 11 C18.26242769 13.49171487 15.32001979 13.39041436 11 13 C6.08085766 11.85601341 3.86484873 9.0585357 1 5 C0.67 3.35 0.34 1.7 0 0 Z " fill="#DFE2E7" transform="translate(585,143)"/>
<path d="M0 0 C13.53 0 27.06 0 41 0 C41 0.33 41 0.66 41 1 C36.05 1 31.1 1 26 1 C26 1.66 26 2.32 26 3 C26.99 3 27.98 3 29 3 C29 3.99 29 4.98 29 6 C27.20963542 7.00911458 25.41927083 8.01822917 23.62890625 9.02734375 C22.02121854 9.8972513 22.02121854 9.8972513 21 11 C19.08647154 11.12619896 17.16764977 11.17580701 15.25 11.1875 C14.20328125 11.20167969 13.1565625 11.21585937 12.078125 11.23046875 C8.91801293 10.99386137 6.80262298 10.45716966 4 9 C0 3.91891892 0 3.91891892 0 0 Z " fill="#E2E4E8" transform="translate(995,263)"/>
<path d="M0 0 C0.80979466 6.70972718 0.80979466 6.70972718 -1.171875 9.8671875 C-4.72887503 13.40724943 -7.75090269 14.42583278 -12.75 14.625 C-15.546875 14.6015625 -15.546875 14.6015625 -18 14 C-20.05493516 11.83761725 -20.89134298 10.4708471 -21.5625 7.5625 C-20.89844932 4.53738025 -19.78439454 2.84688261 -17.33203125 0.9375 C-12.01908696 -1.198357 -5.63416589 -0.32256675 0 0 Z " fill="#F6F7F8" transform="translate(803,142)"/>
<path d="M0 0 C3.91075925 1.98968453 5.57689098 3.36533646 8 7 C8 8.32 8 9.64 8 11 C-0.25 11 -8.5 11 -17 11 C-17 5.2084507 -17 5.2084507 -14.6875 2.6875 C-10.40719735 -1.247125 -5.48017888 -0.96900637 0 0 Z " fill="#F2F3F5" transform="translate(603,121)"/>
<path d="M0 0 C3.96748247 0.90486442 5.62469639 2.53865419 8.00390625 5.73828125 C8.89453125 7.66015625 8.89453125 7.66015625 8.89453125 11.66015625 C0.97453125 11.66015625 -6.94546875 11.66015625 -15.10546875 11.66015625 C-14.27372531 7.50143907 -13.75719342 4.99169799 -10.95703125 1.84765625 C-7.51464902 -0.36011632 -3.98252932 -0.19151497 0 0 Z " fill="#E2E5E9" transform="translate(588.10546875,241.33984375)"/>
<path d="M0 0 C-2 2 -4 4 -6 6 C2.415 5.505 2.415 5.505 11 5 C9.68 6.32 8.36 7.64 7 9 C5.41241759 8.69599486 3.82568954 8.38606375 2.24609375 8.04296875 C-3.04327212 7.94178088 -8.1969425 11.00595086 -13 13 C-15.98523641 14.05530365 -18.9858392 15.02933805 -22 16 C-22 15.34 -22 14.68 -22 14 C-21.34 14 -20.68 14 -20 14 C-20 13.34 -20 12.68 -20 12 C-20.60328125 12.08378906 -21.2065625 12.16757813 -21.828125 12.25390625 C-22.62734375 12.35574219 -23.4265625 12.45757812 -24.25 12.5625 C-25.03890625 12.66691406 -25.8278125 12.77132812 -26.640625 12.87890625 C-29.00532874 13.00027349 -30.7511037 12.69633257 -33 12 C-32.27554687 11.67386719 -31.55109375 11.34773438 -30.8046875 11.01171875 C-29.35449219 10.35623047 -29.35449219 10.35623047 -27.875 9.6875 C-26.36873047 9.006875 -26.36873047 9.006875 -24.83203125 8.3125 C-22.71343157 7.33063863 -20.62802403 6.27659449 -18.5625 5.1875 C-16 4 -16 4 -12 4 C-12 3.34 -12 2.68 -12 2 C-10.75579353 1.4654744 -9.50429064 0.94791389 -8.25 0.4375 C-7.55390625 0.14746094 -6.8578125 -0.14257812 -6.140625 -0.44140625 C-3.69987216 -1.07831803 -2.3596345 -0.80248831 0 0 Z " fill="#4C4C50" transform="translate(293,98)"/>
<path d="M0 0 C3.125 1.5625 3.125 1.5625 5 4 C5.33 6.31 5.66 8.62 6 11 C-1.59 11 -9.18 11 -17 11 C-16 5 -16 5 -14.125 2.125 C-9.52491021 -1.00306106 -5.40259472 -0.85987243 0 0 Z " fill="#E7E9EB" transform="translate(712,242)"/>
<path d="M0 0 C4.2725607 0.78080422 5.91669551 2.13738728 8.671875 5.48828125 C8.671875 7.13828125 8.671875 8.78828125 8.671875 10.48828125 C1.081875 10.48828125 -6.508125 10.48828125 -14.328125 10.48828125 C-12.56454533 1.67038291 -8.54715894 -0.40425752 0 0 Z " fill="#F0F0F2" transform="translate(1010.328125,241.51171875)"/>
<path d="M0 0 C-2.637656 3.31150972 -6.00518105 4.21085172 -9.875 5.5 C-24.67417042 10.75547508 -38.44516435 18.63010957 -51.48046875 27.3203125 C-54 29 -54 29 -56 30 C-56 29.34 -56 28.68 -56 28 C-57.98 28.66 -59.96 29.32 -62 30 C-60.01566799 27.02350199 -59.37028129 26.436247 -56.375 24.875 C-53.3717988 23.27745048 -50.38958789 21.66033752 -47.4453125 19.95703125 C-11.67311773 -0.68164191 -11.67311773 -0.68164191 0 0 Z " fill="#D5DADF" transform="translate(298,105)"/>
<path d="M0 0 C0.33 0 0.66 0 1 0 C1.33 14.52 1.66 29.04 2 44 C8.6211676 37.3788324 14.79402707 30.64778346 16 21 C16.66 21 17.32 21 18 21 C17.45444429 29.84176499 15.52737062 37.85991396 12 46 C11.505 44.515 11.505 44.515 11 43 C6.70441379 42.98352501 6.70441379 42.98352501 3.75 45.5 C2.8425 46.325 1.935 47.15 1 48 C0.34 47.67 -0.32 47.34 -1 47 C-0.505 46.505 -0.505 46.505 0 46 C0.09295815 44.55710213 0.11746513 43.10970215 0.11352539 41.66381836 C0.11344986 40.7429393 0.11337433 39.82206024 0.11329651 38.87327576 C0.10813522 37.87224319 0.10297394 36.87121063 0.09765625 35.83984375 C0.09553383 34.31043907 0.09553383 34.31043907 0.09336853 32.75013733 C0.08775097 29.47922893 0.0751955 26.20838787 0.0625 22.9375 C0.05748726 20.72591244 0.05292396 18.51432382 0.04882812 16.30273438 C0.03777584 10.86846643 0.02102063 5.43423803 0 0 Z " fill="#A5CCDE" transform="translate(295,195)"/>
<path d="M0 0 C0.66 0.33 1.32 0.66 2 1 C1.34 2.65 0.68 4.3 0 6 C0.99 6.33 1.98 6.66 3 7 C3.66 7.33 4.32 7.66 5 8 C4.24074219 8.48210937 3.48148438 8.96421875 2.69921875 9.4609375 C1.70535156 10.09257812 0.71148437 10.72421875 -0.3125 11.375 C-1.29863281 12.00148437 -2.28476563 12.62796875 -3.30078125 13.2734375 C-5.21287929 14.49651613 -7.1114034 15.7409356 -9 17 C-9 16.01 -9 15.02 -9 14 C-9.66 14 -10.32 14 -11 14 C-11.33 13.34 -11.66 12.68 -12 12 C-13.98 12.66 -15.96 13.32 -18 14 C-12.79680774 8.27648851 -6.40156432 4.26770955 0 0 Z " fill="#414345" transform="translate(228,129)"/>
<path d="M0 0 C0 0.66 0 1.32 0 2 C0.66 2 1.32 2 2 2 C2 2.99 2 3.98 2 5 C1.01 5 0.02 5 -1 5 C-1 5.99 -1 6.98 -1 8 C-5.19513682 11.47889394 -8.60713425 12.56857074 -14 13 C-13.45276317 9.62537285 -12.9451 7.91765 -11 5 C-7.875 4.3125 -7.875 4.3125 -5 4 C-4.67 3.01 -4.34 2.02 -4 1 C-2 0 -2 0 0 0 Z " fill="#2B2D2E" transform="translate(241,124)"/>
<path d="M0 0 C0.33 0 0.66 0 1 0 C1.02685412 2.31243792 1.04632841 4.6249627 1.0625 6.9375 C1.07410156 8.22527344 1.08570313 9.51304687 1.09765625 10.83984375 C1 14 1 14 0 15 C-0.15888092 17.28988781 -0.25138073 19.58443441 -0.31640625 21.87890625 C-0.33718735 22.5655687 -0.35796844 23.25223114 -0.37937927 23.95970154 C-0.44494143 26.16052935 -0.50379015 28.36147975 -0.5625 30.5625 C-0.60567892 32.05144514 -0.649293 33.54037773 -0.69335938 35.02929688 C-0.8006293 38.68606553 -0.90187772 42.34297318 -1 46 C-1.33 46 -1.66 46 -2 46 C-3.18550205 39.61931438 -3.22168699 33.41056302 -3.25 26.9375 C-3.270625 25.78572266 -3.29125 24.63394531 -3.3125 23.44726562 C-3.34926759 15.25268974 -2.17188743 7.8956134 0 0 Z " fill="#878889" transform="translate(288,185)"/>
<path d="M0 0 C-2.71974739 3.49534075 -6.53228284 4.48385905 -10.5625 5.875 C-16.33596475 7.92524345 -21.68245357 10.19808462 -26.984375 13.3125 C-29 14 -29 14 -31.265625 13.125 C-31.83796875 12.75375 -32.4103125 12.3825 -33 12 C-7.10267625 -0.42928263 -7.10267625 -0.42928263 0 0 Z " fill="#CDD0D7" transform="translate(298,105)"/>
<path d="M0 0 C0 6.63803199 -8.03731661 12.08001602 -12.49951172 16.56323242 C-15.32337518 19.38531718 -18.15935217 22.19481102 -21 25 C-21.99 24.67 -22.98 24.34 -24 24 C-12.02307692 10.72557692 -12.02307692 10.72557692 -5.625 5.3671875 C-3.63168966 3.69012351 -1.80325433 1.87838993 0 0 Z " fill="#CFD0D5" transform="translate(195,165)"/>
<path d="M0 0 C0.33 0.99 0.66 1.98 1 3 C1.66 3 2.32 3 3 3 C2.61479436 5.53910197 2.29902057 6.72751123 0.37109375 8.484375 C-0.26699219 8.90203125 -0.90507812 9.3196875 -1.5625 9.75 C-2.20316406 10.17796875 -2.84382812 10.6059375 -3.50390625 11.046875 C-4.24447266 11.51867187 -4.24447266 11.51867187 -5 12 C-5.33 11.34 -5.66 10.68 -6 10 C-7.65 10 -9.3 10 -11 10 C-8.37351608 5.02350414 -5.41260386 1.80420129 0 0 Z " fill="#363639" transform="translate(216,140)"/>
<path d="M0 0 C0.33 1.32 0.66 2.64 1 4 C0.34 4 -0.32 4 -1 4 C-1.04125 4.845625 -1.0825 5.69125 -1.125 6.5625 C-2.26386428 11.03660969 -4.57780066 13.93182128 -8 17 C-8.66 17 -9.32 17 -10 17 C-10 17.66 -10 18.32 -10 19 C-10.99 19 -11.98 19 -13 19 C-11.19284541 14.90034073 -8.55027936 11.42308761 -5.9375 7.8125 C-5.47794922 7.17119141 -5.01839844 6.52988281 -4.54492188 5.86914062 C-1.15472274 1.15472274 -1.15472274 1.15472274 0 0 Z " fill="#49494D" transform="translate(130,222)"/>
<path d="M0 0 C0.79921875 0.00902344 1.5984375 0.01804687 2.421875 0.02734375 C3.02515625 0.03894531 3.6284375 0.05054687 4.25 0.0625 C4.25 0.7225 4.25 1.3825 4.25 2.0625 C3.59 2.0625 2.93 2.0625 2.25 2.0625 C2.25 2.7225 2.25 3.3825 2.25 4.0625 C0.6 4.0625 -1.05 4.0625 -2.75 4.0625 C-2.75 4.7225 -2.75 5.3825 -2.75 6.0625 C-4.07 6.0625 -5.39 6.0625 -6.75 6.0625 C-6.75 6.7225 -6.75 7.3825 -6.75 8.0625 C-9.61724686 7.48905063 -10.6114515 7.2010485 -12.75 5.0625 C-8.70947693 0.58906375 -5.9033506 -0.08681398 0 0 Z " fill="#2F2F31" transform="translate(268.75,109.9375)"/>
<path d="M0 0 C0.82638376 2.89234315 1 4.88742431 1 8 C-0.64453125 9.921875 -0.64453125 9.921875 -2.8125 11.75 C-3.87404297 12.67039063 -3.87404297 12.67039063 -4.95703125 13.609375 C-7 15 -7 15 -10 15 C-8.59601721 10.89889238 -6.62912962 8.01910841 -3.875 4.6875 C-3.15054688 3.80449219 -2.42609375 2.92148438 -1.6796875 2.01171875 C-1.12539062 1.34785156 -0.57109375 0.68398437 0 0 Z " fill="#BDD3DA" transform="translate(143,223)"/>
<path d="M0 0 C0 2.64 0 5.28 0 8 C-2 5 -2 5 -3 3 C-4.58828783 5.64714638 -5.05345021 7.43523739 -5.4375 10.5625 C-5.99704477 13.98194024 -6.29123433 14.99786885 -9 17 C-8.40656104 11.30298599 -7.10935397 7.62494392 -5 2 C-11.27 2 -17.54 2 -24 2 C-24 1.67 -24 1.34 -24 1 C-20.56255588 0.83216738 -17.12503622 0.66593456 -13.6875 0.5 C-12.22280273 0.42845703 -12.22280273 0.42845703 -10.72851562 0.35546875 C-9.79072266 0.31035156 -8.85292969 0.26523438 -7.88671875 0.21875 C-7.02264404 0.17685547 -6.15856934 0.13496094 -5.26831055 0.09179688 C-3.51337696 0.02077599 -1.75637008 0 0 0 Z " fill="#C2C7CF" transform="translate(492,88)"/>
<path d="M0 0 C0.66 0.33 1.32 0.66 2 1 C1.50628906 1.54269531 1.01257813 2.08539063 0.50390625 2.64453125 C-0.13675781 3.35996094 -0.77742187 4.07539063 -1.4375 4.8125 C-2.07558594 5.52019531 -2.71367187 6.22789062 -3.37109375 6.95703125 C-5.19086012 8.99896152 -5.19086012 8.99896152 -6 12 C-6.66 12 -7.32 12 -8 12 C-8.33 11.34 -8.66 10.68 -9 10 C-10.98 10.66 -12.96 11.32 -15 12 C-10.58990583 7.14889642 -5.41995647 3.651893 0 0 Z " fill="#626568" transform="translate(225,131)"/>
<path d="M0 0 C0.99 0 1.98 0 3 0 C3.66 0 4.32 0 5 0 C4.67 0.99 4.34 1.98 4 3 C3.01 3 2.02 3 1 3 C1 3.99 1 4.98 1 6 C-0.32 6.33 -1.64 6.66 -3 7 C-3 6.34 -3 5.68 -3 5 C-2.34 5 -1.68 5 -1 5 C-1 4.34 -1 3.68 -1 3 C-1.60328125 3.08378906 -2.2065625 3.16757813 -2.828125 3.25390625 C-3.62734375 3.35574219 -4.4265625 3.45757812 -5.25 3.5625 C-6.03890625 3.66691406 -6.8278125 3.77132812 -7.640625 3.87890625 C-10.00532874 4.00027349 -11.7511037 3.69633257 -14 3 C-8.95760903 -0.02543458 -5.70873728 -0.28075757 0 0 Z " fill="#4E4F53" transform="translate(274,107)"/>
<path d="M0 0 C0.33 0.99 0.66 1.98 1 3 C0.0409375 3.37125 0.0409375 3.37125 -0.9375 3.75 C-1.618125 4.1625 -2.29875 4.575 -3 5 C-3.12890625 5.60070312 -3.2578125 6.20140625 -3.390625 6.8203125 C-4.20230801 9.72364018 -5.66734771 11.03158608 -7.8125 13.125 C-8.49957031 13.80820313 -9.18664062 14.49140625 -9.89453125 15.1953125 C-11.86716151 16.88613844 -13.63025818 17.96689907 -16 19 C-14.66000502 15.993182 -13.20154709 14.00237391 -10.8125 11.75 C-6.97039818 8.02897282 -3.47298736 4.06413414 0 0 Z " fill="#606669" transform="translate(192,177)"/>
<path d="M0 0 C0.33 0.66 0.66 1.32 1 2 C0.34 2 -0.32 2 -1 2 C-1.04125 2.5775 -1.0825 3.155 -1.125 3.75 C-2.42861868 7.10216231 -5.02676737 8.03654449 -8 10 C-9.59504898 11.77924382 -11.06459517 13.6078134 -12.5078125 15.51171875 C-14.27640997 17.27568638 -15.56658354 17.60835572 -18 18 C-13.6309657 12.75715884 -9.16722236 7.48058696 -4 3 C-3.34 3 -2.68 3 -2 3 C-2 2.34 -2 1.68 -2 1 C-1.34 0.67 -0.68 0.34 0 0 Z " fill="#6D6F6F" transform="translate(211,159)"/>
<path d="M0 0 C2.16577207 3.2486581 2.24955466 4.18601347 2.1875 7.9375 C2.18105469 8.79214844 2.17460937 9.64679688 2.16796875 10.52734375 C1.86930936 14.92388786 0.41665909 18.84446667 -1 23 C-1.33 23 -1.66 23 -2 23 C-2.27990605 15.10042938 -1.51537186 7.7527507 0 0 Z " fill="#70A1C3" transform="translate(299,179)"/>
<path d="M0 0 C0.99 0 1.98 0 3 0 C5 2.3125 5 2.3125 7 5 C7.98230498 6.0173873 8.97469597 7.02596117 10 8 C9.34 8 8.68 8 8 8 C7.34 9.65 6.68 11.3 6 13 C4.0417761 11.0417761 3.10584703 9.51051799 1.875 7.0625 C1.52179688 6.37285156 1.16859375 5.68320313 0.8046875 4.97265625 C0 3 0 3 0 0 Z " fill="#9CCADF" transform="translate(86,232)"/>
<path d="M0 0 C0 0.66 0 1.32 0 2 C-2.31 2.33 -4.62 2.66 -7 3 C-6.67 3.66 -6.34 4.32 -6 5 C-10.51617599 5.07654536 -14.59085217 5.10228696 -19 4 C-18.67 3.34 -18.34 2.68 -18 2 C-15.48828125 1.3671875 -15.48828125 1.3671875 -12.3125 0.875 C-11.27738281 0.70742187 -10.24226562 0.53984375 -9.17578125 0.3671875 C-6.08398337 0.00971025 -3.10906723 -0.06525778 0 0 Z " fill="#A3CDDB" transform="translate(184,245)"/>
<path d="M0 0 C0 2.64 0 5.28 0 8 C-0.33 8 -0.66 8 -1 8 C-1 5.69 -1 3.38 -1 1 C-10.39018784 1.06126774 -10.39018784 1.06126774 -18 6 C-18.66 6 -19.32 6 -20 6 C-20.33 7.32 -20.66 8.64 -21 10 C-21.375 7.8125 -21.375 7.8125 -21 5 C-15.85458305 -2.01647766 -7.85384593 -0.44964767 0 0 Z " fill="#A4AAB8" transform="translate(803,142)"/>
<path d="M0 0 C0.99 0.33 1.98 0.66 3 1 C3.33 3.31 3.66 5.62 4 8 C1.61426621 9.89213369 -0.07175348 11.02391783 -3 12 C-2.01 8.04 -1.02 4.08 0 0 Z " fill="#E2E5E7" transform="translate(430,116)"/>
<path d="M0 0 C3.05675241 4.58512862 3.11219208 7.77106324 3.0625 13.1875 C3.05347656 14.45980469 3.04445313 15.73210937 3.03515625 17.04296875 C3.02355469 18.01878906 3.01195312 18.99460937 3 20 C2.34 19.67 1.68 19.34 1 19 C-0.17063143 12.67859027 -0.10607393 6.41157971 0 0 Z " fill="#3B4756" transform="translate(1033,243)"/>
<path d="M0 0 C1.22589844 0.01353516 1.22589844 0.01353516 2.4765625 0.02734375 C3.41628906 0.04474609 3.41628906 0.04474609 4.375 0.0625 C4.375 0.3925 4.375 0.7225 4.375 1.0625 C3.67632813 1.08828125 2.97765625 1.1140625 2.2578125 1.140625 C1.34773437 1.19734375 0.43765625 1.2540625 -0.5 1.3125 C-1.40492188 1.35890625 -2.30984375 1.4053125 -3.2421875 1.453125 C-5.77532187 1.81050585 -5.77532187 1.81050585 -6.84765625 3.99609375 C-7.10417969 4.67800781 -7.36070312 5.35992187 -7.625 6.0625 C-8.3984375 6.9596875 -8.3984375 6.9596875 -9.1875 7.875 C-11.13445189 10.83775287 -11.28990689 13.5775317 -11.625 17.0625 C-11.955 17.0625 -12.285 17.0625 -12.625 17.0625 C-13.11803103 13.03607995 -13.49492855 9.5204358 -11.359375 5.94140625 C-7.74570684 1.72253639 -5.66110721 -0.08087296 0 0 Z " fill="#B9BEC5" transform="translate(517.625,243.9375)"/>
<path d="M0 0 C0.66 0.33 1.32 0.66 2 1 C1.731875 1.78375 1.46375 2.5675 1.1875 3.375 C0.51257703 5.43529118 -0.14193705 7.50323137 -0.73046875 9.58984375 C-0.98441406 10.48832031 -1.23835938 11.38679687 -1.5 12.3125 C-1.7371875 13.17488281 -1.974375 14.03726563 -2.21875 14.92578125 C-3 17 -3 17 -5 18 C-3.7 3.7 -3.7 3.7 0 0 Z " fill="#73A7C7" transform="translate(310,137)"/>
<path d="M0 0 C0.66 0.33 1.32 0.66 2 1 C1.9375 2.75 1.9375 2.75 1 5 C-1.24164322 6.59501537 -3.53566643 7.74543018 -6 9 C-6 8.34 -6 7.68 -6 7 C-7.98 7.66 -9.96 8.32 -12 9 C-9.89281648 5.83922473 -8.71084255 5.08785662 -5.4375 3.375 C-2.52697344 1.95320996 -2.52697344 1.95320996 0 0 Z " fill="#C8CED5" transform="translate(248,126)"/>
<path d="M0 0 C0.66 0.33 1.32 0.66 2 1 C2 1.66 2 2.32 2 3 C1.34 3 0.68 3 0 3 C0 3.66 0 4.32 0 5 C-1.32 5.33 -2.64 5.66 -4 6 C-4 6.66 -4 7.32 -4 8 C-7 10 -7 10 -9.1875 9.625 C-9.785625 9.41875 -10.38375 9.2125 -11 9 C-3.70159453 2.66514806 -3.70159453 2.66514806 0 0 Z " fill="#7CA9CE" transform="translate(275,295)"/>
<path d="M0 0 C2 3 2 3 1.72265625 4.890625 C1.48417969 5.58671875 1.24570312 6.2828125 1 7 C0.62681641 8.16789063 0.62681641 8.16789063 0.24609375 9.359375 C-0.02074219 10.14828125 -0.28757812 10.9371875 -0.5625 11.75 C-0.96662109 12.94882812 -0.96662109 12.94882812 -1.37890625 14.171875 C-1.58386719 14.77515625 -1.78882813 15.3784375 -2 16 C-2.66 16 -3.32 16 -4 16 C-3.6083965 10.04492601 -2.62875405 5.37180176 0 0 Z " fill="#23364E" transform="translate(820,244)"/>
<path d="M0 0 C3.96 0 7.92 0 12 0 C12 0.33 12 0.66 12 1 C10.02 1.33 8.04 1.66 6 2 C6 2.66 6 3.32 6 4 C6.66 4.33 7.32 4.66 8 5 C8 5.66 8 6.32 8 7 C7.05125 6.814375 6.1025 6.62875 5.125 6.4375 C2.10131207 5.71313368 2.10131207 5.71313368 0 7 C0 6.01 0 5.02 0 4 C0.66 4 1.32 4 2 4 C1.34 2.68 0.68 1.36 0 0 Z " fill="#DDE2E8" transform="translate(610,144)"/>
<path d="M0 0 C2.97 0 5.94 0 9 0 C8.21625 0.7425 7.4325 1.485 6.625 2.25 C4.43495469 4.54433318 3.17268614 6.12158858 2 9 C1.34 9 0.68 9 0 9 C0 6.03 0 3.06 0 0 Z " fill="#CAD0D9" transform="translate(760,230)"/>
<path d="M0 0 C0.33 0.66 0.66 1.32 1 2 C-1.59931648 7.19863296 -5.37913999 12.9182 -11 15 C-9.3718356 11.24269753 -6.98598083 8.383177 -4.375 5.25 C-3.55773437 4.26515625 -2.74046875 3.2803125 -1.8984375 2.265625 C-1.27195313 1.51796875 -0.64546875 0.7703125 0 0 Z " fill="#606465" transform="translate(171,201)"/>
<path d="M0 0 C4.62 0 9.24 0 14 0 C13.01 1.485 13.01 1.485 12 3 C9.3984375 3.29296875 9.3984375 3.29296875 6.375 3.1875 C4.87066406 3.14689453 4.87066406 3.14689453 3.3359375 3.10546875 C2.56507813 3.07066406 1.79421875 3.03585938 1 3 C0.67 2.01 0.34 1.02 0 0 Z " fill="#A8D1E4" transform="translate(274,247)"/>
<path d="M0 0 C-0.8353125 0.556875 -0.8353125 0.556875 -1.6875 1.125 C-4.21814033 3.01936145 -4.21814033 3.01936145 -6.375 6.1875 C-9 9 -9 9 -12.3125 9.375 C-13.199375 9.25125 -14.08625 9.1275 -15 9 C-14.67 8.34 -14.34 7.68 -14 7 C-12.5459375 6.5978125 -12.5459375 6.5978125 -11.0625 6.1875 C-7.79696665 5.32023298 -7.79696665 5.32023298 -6.75 2.4375 C-6.37875 1.2309375 -6.37875 1.2309375 -6 0 C-3.50907189 -1.24546405 -2.58919267 -0.7767578 0 0 Z " fill="#414245" transform="translate(299,96)"/>
<path d="M0 0 C0.66 0.33 1.32 0.66 2 1 C1.195625 1.680625 0.39125 2.36125 -0.4375 3.0625 C-4.75354866 8.07350565 -3.91199079 15.71134157 -4 22 C-4.33 22 -4.66 22 -5 22 C-5.13548815 19.26916098 -5.23429855 16.54508193 -5.3125 13.8125 C-5.35439453 13.04357422 -5.39628906 12.27464844 -5.43945312 11.48242188 C-5.53491887 7.03371827 -5.43312555 5.52445124 -2.48046875 1.94921875 C-1.66191406 1.30597656 -0.84335937 0.66273438 0 0 Z " fill="#D6D8DE" transform="translate(906,145)"/>
<path d="M0 0 C0.33 0 0.66 0 1 0 C0.50341703 5.66104589 -0.54510684 9.87674471 -3 15 C-3.66 14.67 -4.32 14.34 -5 14 C-5 12.02 -5 10.04 -5 8 C-4.34 8 -3.68 8 -3 8 C-2.01 5.36 -1.02 2.72 0 0 Z " fill="#CFD5DC" transform="translate(411,125)"/>
<path d="M0 0 C0.33 1.32 0.66 2.64 1 4 C0.34 4 -0.32 4 -1 4 C-1.04125 4.763125 -1.0825 5.52625 -1.125 6.3125 C-2 9 -2 9 -5.0625 10.8125 C-6.031875 11.204375 -7.00125 11.59625 -8 12 C-6.59023295 8.96147295 -4.91129772 6.4060405 -2.875 3.75 C-2.06675781 2.69039062 -2.06675781 2.69039062 -1.2421875 1.609375 C-0.83226562 1.07828125 -0.42234375 0.5471875 0 0 Z " fill="#6A6C6D" transform="translate(130,222)"/>
<path d="M0 0 C0 0.99 0 1.98 0 3 C-1.96875 4.82421875 -1.96875 4.82421875 -4.5 6.6875 C-5.3353125 7.31011719 -6.170625 7.93273437 -7.03125 8.57421875 C-7.6809375 9.04472656 -8.330625 9.51523438 -9 10 C-9.66 9.67 -10.32 9.34 -11 9 C-7.68090651 4.60708214 -5.20112114 2.1772135 0 0 Z " fill="#2E2F2F" transform="translate(216,140)"/>
<path d="M0 0 C0.33 0.66 0.66 1.32 1 2 C-0.07507629 3.29854721 -1.16043736 4.58858361 -2.25 5.875 C-2.85328125 6.59429687 -3.4565625 7.31359375 -4.078125 8.0546875 C-5.97087634 9.97052118 -7.53657727 10.96449045 -10 12 C-8.52278578 8.54798361 -6.56205999 6.35038064 -3.875 3.75 C-3.15054688 3.04359375 -2.42609375 2.3371875 -1.6796875 1.609375 C-1.12539062 1.07828125 -0.57109375 0.5471875 0 0 Z " fill="#DEE7EE" transform="translate(168,167)"/>
<path d="M0 0 C-2.30838651 2.69435467 -4.11185835 3.5677981 -7.5625 4.3125 C-8.74005859 4.58513672 -8.74005859 4.58513672 -9.94140625 4.86328125 C-10.96041016 4.93095703 -10.96041016 4.93095703 -12 5 C-12.66 4.34 -13.32 3.68 -14 3 C-4.58997722 -0.44419134 -4.58997722 -0.44419134 0 0 Z " fill="#B1B2B7" transform="translate(298,105)"/>
<path d="M0 0 C2.0234375 3.6796875 2.0234375 3.6796875 1.8125 6.5625 C0.92451538 9.22645385 0.11471766 10.21062352 -2 12 C-2.556875 12.556875 -3.11375 13.11375 -3.6875 13.6875 C-4.120625 14.120625 -4.55375 14.55375 -5 15 C-4.37321829 11.33827525 -3.35548154 8.1181005 -1.9375 4.6875 C-1.39416016 3.36298828 -1.39416016 3.36298828 -0.83984375 2.01171875 C-0.56269531 1.34785156 -0.28554688 0.68398437 0 0 Z " fill="#3E4F67" transform="translate(655,240)"/>
<path d="M0 0 C0 4.07300169 -1.58452534 5.77936711 -4 9 C-6.25 10.875 -6.25 10.875 -8 12 C-8.66 11.67 -9.32 11.34 -10 11 C-6.7 7.37 -3.4 3.74 0 0 Z " fill="#6A6C6F" transform="translate(164,182)"/>
<path d="M0 0 C0.33 0.66 0.66 1.32 1 2 C0.67 2.66 0.34 3.32 0 4 C1.65 4 3.3 4 5 4 C4.67 5.32 4.34 6.64 4 8 C3.34 8 2.68 8 2 8 C1.67 7.34 1.34 6.68 1 6 C-0.97888961 5.27306096 -2.97954558 4.60183749 -5 4 C-5.33 4.66 -5.66 5.32 -6 6 C-6.33 5.01 -6.66 4.02 -7 3 C-5.02 3 -3.04 3 -1 3 C-0.67 2.01 -0.34 1.02 0 0 Z " fill="#A5C9D7" transform="translate(114,243)"/>
<path d="M0 0 C0.99386719 0.02707031 1.98773437 0.05414063 3.01171875 0.08203125 C4.15060547 0.13423828 4.15060547 0.13423828 5.3125 0.1875 C5.3125 0.5175 5.3125 0.8475 5.3125 1.1875 C2.0125 1.1875 -1.2875 1.1875 -4.6875 1.1875 C-5.3475 2.5075 -6.0075 3.8275 -6.6875 5.1875 C-8.8125 6.4375 -8.8125 6.4375 -10.6875 7.1875 C-8.16861825 1.5684561 -6.31328865 -0.22282195 0 0 Z " fill="#D3D6DE" transform="translate(706.6875,241.8125)"/>
<path d="M0 0 C1.32 0.33 2.64 0.66 4 1 C4 1.99 4 2.98 4 4 C-1.2734375 7.22265625 -1.2734375 7.22265625 -3 8 C-3.66 7.67 -4.32 7.34 -5 7 C-4.360625 6.21625 -3.72125 5.4325 -3.0625 4.625 C-1.01857687 2.20460719 -1.01857687 2.20460719 0 0 Z " fill="#86A4AC" transform="translate(251,231)"/>
<path d="M0 0 C0.66 0.66 1.32 1.32 2 2 C1.9765625 4.6015625 1.9765625 4.6015625 1.625 7.625 C1.51414062 8.62789062 1.40328125 9.63078125 1.2890625 10.6640625 C1.19367187 11.43492187 1.09828125 12.20578125 1 13 C0.34 13 -0.32 13 -1 13 C-1.02696365 11.20841511 -1.04637917 9.41671527 -1.0625 7.625 C-1.07410156 6.62726563 -1.08570313 5.62953125 -1.09765625 4.6015625 C-1 2 -1 2 0 0 Z " fill="#283B54" transform="translate(766,143)"/>
<path d="M0 0 C0.66 0 1.32 0 2 0 C1.53199289 4.05606165 1.12046792 7.46588679 -1 11 C-1.33 11 -1.66 11 -2 11 C-1.85957123 9.35369672 -1.71250671 7.70795821 -1.5625 6.0625 C-1.48128906 5.14597656 -1.40007812 4.22945312 -1.31640625 3.28515625 C-1 1 -1 1 0 0 Z " fill="#77A4C6" transform="translate(321,224)"/>
<path d="M0 0 C0.66 1.32 1.32 2.64 2 4 C-0.31 5.32 -2.62 6.64 -5 8 C-4.64950425 4.75791433 -4.43778819 3.38472296 -1.9375 1.1875 C-1.298125 0.795625 -0.65875 0.40375 0 0 Z " fill="#34363A" transform="translate(238,128)"/>
<path d="M0 0 C0.66 0 1.32 0 2 0 C0.76075855 4.95696581 -0.78577758 7.11658466 -5 10 C-5 6.65580848 -4.52480606 5.93159679 -2.625 3.3125 C-2.18414063 2.68988281 -1.74328125 2.06726563 -1.2890625 1.42578125 C-0.86367188 0.95527344 -0.43828125 0.48476562 0 0 Z " fill="#2B3E59" transform="translate(564,236)"/>
<path d="M0 0 C1.32 0.33 2.64 0.66 4 1 C2.8125 3.5 2.8125 3.5 1 6 C-1.6875 6.3125 -1.6875 6.3125 -4 6 C-3.67 5.01 -3.34 4.02 -3 3 C-2.34 3 -1.68 3 -1 3 C-0.67 2.01 -0.34 1.02 0 0 Z " fill="#9CC4CD" transform="translate(244,239)"/>
<path d="M0 0 C0.33 0 0.66 0 1 0 C1.25 7.625 1.25 7.625 -1 11 C-1.66 10.67 -2.32 10.34 -3 10 C-2.69201674 8.51988629 -2.378482 7.04092675 -2.0625 5.5625 C-1.88847656 4.73878906 -1.71445312 3.91507812 -1.53515625 3.06640625 C-1 1 -1 1 0 0 Z " fill="#0C1F39" transform="translate(476,260)"/>
<path d="M0 0 C0.33 0.66 0.66 1.32 1 2 C0.22265625 3.7265625 0.22265625 3.7265625 -0.9375 5.625 C-1.618125 6.73875 -2.29875 7.8525 -3 9 C-3.99 9 -4.98 9 -6 9 C-4.47291037 5.56404834 -2.40072955 2.88087546 0 0 Z " fill="#70A3CD" transform="translate(309,257)"/>
<path d="M0 0 C1.32 0.33 2.64 0.66 4 1 C0.535 3.97 0.535 3.97 -3 7 C-3.33 6.01 -3.66 5.02 -4 4 C-2.25 1.9375 -2.25 1.9375 0 0 Z " fill="#1A2C45" transform="translate(767,231)"/>
<path d="M0 0 C-0.66 1.32 -1.32 2.64 -2 4 C-2.66 4 -3.32 4 -4 4 C-4.33 3.34 -4.66 2.68 -5 2 C-6.98 2.66 -8.96 3.32 -11 4 C-8.57489301 0.24108417 -8.57489301 0.24108417 -6.0625 -0.8125 C-3.79631016 -1.01851726 -2.15577438 -0.69292748 0 0 Z " fill="#515559" transform="translate(221,139)"/>
<path d="M0 0 C1.32 0.66 2.64 1.32 4 2 C2.55746343 5.36591866 0.66735273 7.51047079 -2 10 C-1.67 8.35 -1.34 6.7 -1 5 C-0.01 4.67 0.98 4.34 2 4 C2 3.34 2 2.68 2 2 C1.34 2 0.68 2 0 2 C0 1.34 0 0.68 0 0 Z " fill="#2A3D5B" transform="translate(729,272)"/>
<path d="M0 0 C0 3.21534057 -0.26476072 4.35582586 -2 7 C-4.625 8.75 -4.625 8.75 -7 10 C-5.33248852 6.05860922 -2.77289351 3.2107188 0 0 Z " fill="#626666" transform="translate(142,207)"/>
<path d="M0 0 C-1 3 -1 3 -4 5 C-6.1875 4.625 -6.1875 4.625 -8 4 C-4.5 0 -4.5 0 0 0 Z " fill="#E5E9ED" transform="translate(256,124)"/>
<path d="M0 0 C0.90105469 0.01804687 1.80210937 0.03609375 2.73046875 0.0546875 C3.41753906 0.07789062 4.10460937 0.10109375 4.8125 0.125 C4.8125 0.455 4.8125 0.785 4.8125 1.125 C1.8425 1.125 -1.1275 1.125 -4.1875 1.125 C-4.8475 2.445 -5.5075 3.765 -6.1875 5.125 C-6.8475 5.785 -7.5075 6.445 -8.1875 7.125 C-8.375 4.75 -8.375 4.75 -8.1875 2.125 C-4.87379 -0.08414 -3.8428979 -0.09981553 0 0 Z " fill="#C2C7CE" transform="translate(661.1875,119.875)"/>
<path d="M0 0 C0 0.66 0 1.32 0 2 C-0.928125 2.4021875 -0.928125 2.4021875 -1.875 2.8125 C-4.2995233 3.95556848 -4.2995233 3.95556848 -6 7 C-8.625 7.6875 -8.625 7.6875 -11 8 C-3.21621622 0 -3.21621622 0 0 0 Z " fill="#3A4E66" transform="translate(585,109)"/>
<path d="M0 0 C2.1015625 0.42578125 2.1015625 0.42578125 4 1 C2.8803014 2.00593243 1.7540588 3.0045849 0.625 4 C-0.00148438 4.556875 -0.62796875 5.11375 -1.2734375 5.6875 C-3 7 -3 7 -5 7 C-3.7251791 4.15616877 -2.54862922 1.86245982 0 0 Z " fill="#CDD1D6" transform="translate(768,245)"/>
<path d="M0 0 C0.99 0.33 1.98 0.66 3 1 C-0.75 6.875 -0.75 6.875 -3 8 C-2.45276317 4.62537285 -1.9451 2.91765 0 0 Z " fill="#ECEDED" transform="translate(134,212)"/>
<path d="M0 0 C-1.49097658 3.7952131 -3.75700849 5.61042731 -7 8 C-7.66 7.67 -8.32 7.34 -9 7 C-7.88121617 5.82737096 -6.75476949 4.66204862 -5.625 3.5 C-4.68527344 2.52546875 -4.68527344 2.52546875 -3.7265625 1.53125 C-2 0 -2 0 0 0 Z " fill="#636668" transform="translate(202,169)"/>
<path d="M0 0 C1.09658936 3.28976808 0.79953138 4.71303767 0 8 C-1.98 8 -3.96 8 -6 8 C-4.02 5.36 -2.04 2.72 0 0 Z " fill="#0C1D3B" transform="translate(415,159)"/>
<path d="M0 0 C0.66 0.33 1.32 0.66 2 1 C1.04956626 2.33897583 0.08940853 3.67105427 -0.875 5 C-1.40867187 5.7425 -1.94234375 6.485 -2.4921875 7.25 C-3.23855469 8.11625 -3.23855469 8.11625 -4 9 C-4.66 9 -5.32 9 -6 9 C-4.68775452 5.06326356 -3.08089673 2.77280706 0 0 Z " fill="#CCD4D9" transform="translate(860,125)"/>
<path d="M0 0 C1.46726798 3.81489674 0.43336419 6.29011622 -1 10 C-1.66 10 -2.32 10 -3 10 C-2.25 2.25 -2.25 2.25 0 0 Z " fill="#11223A" transform="translate(479,111)"/>
<path d="M0 0 C-0.99 1.485 -0.99 1.485 -2 3 C-4.3828125 3.29296875 -4.3828125 3.29296875 -7.125 3.1875 C-8.03507812 3.16042969 -8.94515625 3.13335937 -9.8828125 3.10546875 C-10.58148438 3.07066406 -11.28015625 3.03585938 -12 3 C-4.82142857 -1.78571429 -4.82142857 -1.78571429 0 0 Z " fill="#6C6C6F" transform="translate(293,98)"/>
<path d="M0 0 C-0.375 2.4375 -0.375 2.4375 -1 5 C-1.99 5.495 -1.99 5.495 -3 6 C-3 4.68 -3 3.36 -3 2 C-4.98 2.33 -6.96 2.66 -9 3 C-4.5 0 -4.5 0 0 0 Z " fill="#8E8F94" transform="translate(327,86)"/>
<path d="M0 0 C0 0.66 0 1.32 0 2 C-3.50776784 3.60355101 -6.14354879 4.22036864 -10 4 C-9 2 -9 2 -6.6875 0.875 C-4 0 -4 0 0 0 Z " fill="#6EA1C7" transform="translate(244,314)"/>
<path d="M0 0 C1.36125 0.37125 1.36125 0.37125 2.75 0.75 C-0.69450737 3.04633824 -3.18812283 3.29016485 -7.25 3.75 C-4.05 -0.31153846 -4.05 -0.31153846 0 0 Z " fill="#1F324E" transform="translate(723.25,269.25)"/>
<path d="M0 0 C0.86625 0.37125 0.86625 0.37125 1.75 0.75 C-3 4.75 -3 4.75 -5.25 4.75 C-5.58 6.07 -5.91 7.39 -6.25 8.75 C-6.62010337 5.4190697 -6.52461204 4.12268777 -4.5 1.375 C-2.25 -0.25 -2.25 -0.25 0 0 Z " fill="#CCD1D7" transform="translate(788.25,143.25)"/>
<path d="M0 0 C0.99 1.485 0.99 1.485 2 3 C2.99 3.33 3.98 3.66 5 4 C3.625 6.5 3.625 6.5 2 9 C1.34 9 0.68 9 0 9 C0 6.03 0 3.06 0 0 Z " fill="#B2BBC9" transform="translate(852,109)"/>
<path d="M0 0 C-0.39803561 2.88575819 -0.79009069 3.82189513 -3.0625 5.75 C-3.701875 6.1625 -4.34125 6.575 -5 7 C-5.33 6.01 -5.66 5.02 -6 4 C-2.25 0 -2.25 0 0 0 Z " fill="#213858" transform="translate(900,274)"/>
<path d="M0 0 C-1 3 -1 3 -2.8125 4.25 C-5.33943414 5.11637742 -6.52221994 4.88492145 -9 4 C-3.375 0 -3.375 0 0 0 Z " fill="#243851" transform="translate(696,231)"/>
<path d="M0 0 C0.99 0.33 1.98 0.66 3 1 C3.33 3.31 3.66 5.62 4 8 C3.01 7.34 2.02 6.68 1 6 C0.67 6.33 0.34 6.66 0 7 C-0.93423645 3.98968256 -1.04449911 3.13349732 0 0 Z " fill="#B8C1CA" transform="translate(430,116)"/>
<path d="M0 0 C0.33 0.66 0.66 1.32 1 2 C0.01 3.32 -0.98 4.64 -2 6 C-2.33 4.68 -2.66 3.36 -3 2 C-2.01 1.34 -1.02 0.68 0 0 Z M-4 5 C-3.34 5.66 -2.68 6.32 -2 7 C-3.98 7.99 -3.98 7.99 -6 9 C-5.34 7.68 -4.68 6.36 -4 5 Z " fill="#6DA4C5" transform="translate(99,110)"/>
<path d="M0 0 C-1.75 2.0625 -1.75 2.0625 -4 4 C-7.01811422 3.82246387 -7.83735215 3.16264785 -10 1 C-6.59437148 0.22157062 -3.49234244 -0.09978121 0 0 Z " fill="#727178" transform="translate(304,103)"/>
<path d="M0 0 C0 0.66 0 1.32 0 2 C-2.30276574 4.21747812 -3.52480092 4.96760006 -6.75 5.1875 C-7.86375 5.0946875 -7.86375 5.0946875 -9 5 C-6.45523312 2.20075644 -3.92372883 0 0 0 Z " fill="#D3E8F7" transform="translate(263,101)"/>
<path d="M0 0 C2.97 0.33 5.94 0.66 9 1 C5.1496895 3.56687367 3.41430237 2.83288724 -1 2 C-0.67 1.34 -0.34 0.68 0 0 Z " fill="#6DA3C7" transform="translate(216,63)"/>
<path d="M0 0 C0.66 0 1.32 0 2 0 C1.54738642 1.43931117 1.08767021 2.87638999 0.625 4.3125 C0.36976563 5.11300781 0.11453125 5.91351563 -0.1484375 6.73828125 C-1 9 -1 9 -3 12 C-2.49202991 7.6822542 -1.80317221 3.96697886 0 0 Z " fill="#E1F7F9" transform="translate(305,143)"/>
<path d="M0 0 C-1.24546405 3.73639216 -2.63404953 4.18756513 -6 6 C-6.33 5.01 -6.66 4.02 -7 3 C-3.375 0 -3.375 0 0 0 Z " fill="#E8EDEF" transform="translate(242,133)"/>
<path d="M0 0 C0.66 0 1.32 0 2 0 C2 0.66 2 1.32 2 2 C0.04072937 3.7143618 -1.95880212 5.38405168 -4 7 C-4.99 6.34 -5.98 5.68 -7 5 C-6.401875 4.731875 -5.80375 4.46375 -5.1875 4.1875 C-2.95672092 3.1106021 -2.95672092 3.1106021 -1.375 1.375 C-0.694375 0.694375 -0.694375 0.694375 0 0 Z " fill="#575A5D" transform="translate(237,123)"/>
<path d="M0 0 C2.97 0 5.94 0 9 0 C8 2 8 2 5.625 2.8125 C4.325625 2.9053125 4.325625 2.9053125 3 3 C2.01 2.01 1.02 1.02 0 0 Z " fill="#AAD2E0" transform="translate(224,247)"/>
<path d="M0 0 C0.66 0 1.32 0 2 0 C1.67 3.3 1.34 6.6 1 10 C-1.56687367 6.1496895 -0.83288724 4.41430237 0 0 Z " fill="#99C9DC" transform="translate(311,216)"/>
<path d="M0 0 C2.31 0 4.62 0 7 0 C6.34 1.32 5.68 2.64 5 4 C3.68 3.67 2.36 3.34 1 3 C1.33 2.67 1.66 2.34 2 2 C1.34 1.34 0.68 0.68 0 0 Z " fill="#46484B" transform="translate(300,102)"/>
<path d="M0 0 C1 2 1 2 0.44140625 3.9453125 C0.15136719 4.66460937 -0.13867188 5.38390625 -0.4375 6.125 C-0.72496094 6.84945312 -1.01242187 7.57390625 -1.30859375 8.3203125 C-1.53675781 8.87460938 -1.76492188 9.42890625 -2 10 C-2.33 10 -2.66 10 -3 10 C-3.36923077 4.58461538 -3.36923077 4.58461538 -1.5 1.625 C-1.005 1.08875 -0.51 0.5525 0 0 Z " fill="#0C1C35" transform="translate(826,232)"/>
<path d="M0 0 C2.1875 0.3125 2.1875 0.3125 4 1 C2.35 2.32 0.7 3.64 -1 5 C-1.66 4.34 -2.32 3.68 -3 3 C-1.75 1.4375 -1.75 1.4375 0 0 Z " fill="#253855" transform="translate(937,231)"/>
<path d="M0 0 C1.04005702 3.38018531 1.08004482 6.4780279 1 10 C0.01 10 -0.98 10 -2 10 C-1.54177532 6.53058454 -1.10868317 3.32604951 0 0 Z " fill="#3A4B61" transform="translate(416,112)"/>
<path d="M0 0 C-1.32 0.99 -2.64 1.98 -4 3 C-5.32 2.34 -6.64 1.68 -8 1 C-4.93251126 -0.86240388 -3.40254489 -1.2151946 0 0 Z " fill="#C2C5CE" transform="translate(279,113)"/>
<path d="M0 0 C0.33 0 0.66 0 1 0 C1.36923077 7.50769231 1.36923077 7.50769231 -0.5 10 C-0.995 10.33 -1.49 10.66 -2 11 C-1 3.57142857 -1 3.57142857 0 0 Z " fill="#AEB0B7" transform="translate(485,94)"/>
</svg>
